<svg width="540" height="508" viewBox="0 0 540 508" fill="none" xmlns="http://www.w3.org/2000/svg">
<circle cx="55" cy="227" r="7" fill="url(#paint0_linear)"/>
<rect x="146.662" y="69.8246" width="149.537" height="149.537" transform="rotate(35 146.662 69.8246)" stroke="url(#paint1_linear)"/>
<rect x="145.501" y="63.2363" width="10.4609" height="10.4609" transform="rotate(35 145.501 63.2363)" fill="#F3F4F8" stroke="url(#paint2_linear)"/>
<rect x="60.3037" y="184.91" width="10.4609" height="10.4609" transform="rotate(35 60.3037 184.91)" fill="#F3F4F8" stroke="url(#paint3_linear)"/>
<rect x="181.978" y="270.107" width="10.4609" height="10.4609" transform="rotate(35 181.978 270.107)" fill="#F3F4F8" stroke="url(#paint4_linear)"/>
<rect x="267.175" y="148.433" width="10.4609" height="10.4609" transform="rotate(35 267.175 148.433)" fill="#F3F4F8" stroke="url(#paint5_linear)"/>
<rect x="185.595" y="291.844" width="149.537" height="149.537" transform="rotate(35 185.595 291.844)" stroke="url(#paint6_linear)"/>
<rect x="185.595" y="291.844" width="149.537" height="149.537" transform="rotate(35 185.595 291.844)" stroke="url(#paint7_linear)"/>
<rect x="184.433" y="285.256" width="10.4609" height="10.4609" transform="rotate(35 184.433 285.256)" fill="#F3F4F8"/>
<rect x="184.433" y="285.256" width="10.4609" height="10.4609" transform="rotate(35 184.433 285.256)" stroke="url(#paint8_linear)"/>
<rect x="184.433" y="285.256" width="10.4609" height="10.4609" transform="rotate(35 184.433 285.256)" stroke="url(#paint9_linear)"/>
<rect x="99.2361" y="406.93" width="10.4609" height="10.4609" transform="rotate(35 99.2361 406.93)" fill="#F3F4F8"/>
<rect x="99.2361" y="406.93" width="10.4609" height="10.4609" transform="rotate(35 99.2361 406.93)" stroke="url(#paint10_linear)"/>
<rect x="99.2361" y="406.93" width="10.4609" height="10.4609" transform="rotate(35 99.2361 406.93)" stroke="url(#paint11_linear)"/>
<rect x="220.91" y="492.127" width="10.4609" height="10.4609" transform="rotate(35 220.91 492.127)" fill="#F3F4F8"/>
<rect x="220.91" y="492.127" width="10.4609" height="10.4609" transform="rotate(35 220.91 492.127)" stroke="url(#paint12_linear)"/>
<rect x="220.91" y="492.127" width="10.4609" height="10.4609" transform="rotate(35 220.91 492.127)" stroke="url(#paint13_linear)"/>
<rect x="306.108" y="370.453" width="10.4609" height="10.4609" transform="rotate(35 306.108 370.453)" fill="#F3F4F8"/>
<rect x="306.108" y="370.453" width="10.4609" height="10.4609" transform="rotate(35 306.108 370.453)" stroke="url(#paint14_linear)"/>
<rect x="306.108" y="370.453" width="10.4609" height="10.4609" transform="rotate(35 306.108 370.453)" stroke="url(#paint15_linear)"/>
<rect x="368.682" y="30.8925" width="149.537" height="149.537" transform="rotate(35 368.682 30.8925)" stroke="url(#paint16_linear)"/>
<rect x="368.682" y="30.8925" width="149.537" height="149.537" transform="rotate(35 368.682 30.8925)" stroke="url(#paint17_linear)"/>
<rect x="367.521" y="24.3036" width="10.4609" height="10.4609" transform="rotate(35 367.521 24.3036)" fill="#F3F4F8"/>
<rect x="367.521" y="24.3036" width="10.4609" height="10.4609" transform="rotate(35 367.521 24.3036)" stroke="url(#paint18_linear)"/>
<rect x="367.521" y="24.3036" width="10.4609" height="10.4609" transform="rotate(35 367.521 24.3036)" stroke="url(#paint19_linear)"/>
<rect x="282.324" y="145.978" width="10.4609" height="10.4609" transform="rotate(35 282.324 145.978)" fill="#F3F4F8"/>
<rect x="282.324" y="145.978" width="10.4609" height="10.4609" transform="rotate(35 282.324 145.978)" stroke="url(#paint20_linear)"/>
<rect x="282.324" y="145.978" width="10.4609" height="10.4609" transform="rotate(35 282.324 145.978)" stroke="url(#paint21_linear)"/>
<rect x="403.998" y="231.175" width="10.4609" height="10.4609" transform="rotate(35 403.998 231.175)" fill="#F3F4F8"/>
<rect x="403.998" y="231.175" width="10.4609" height="10.4609" transform="rotate(35 403.998 231.175)" stroke="url(#paint22_linear)"/>
<rect x="403.998" y="231.175" width="10.4609" height="10.4609" transform="rotate(35 403.998 231.175)" stroke="url(#paint23_linear)"/>
<rect x="489.195" y="109.501" width="10.4609" height="10.4609" transform="rotate(35 489.195 109.501)" fill="#F3F4F8"/>
<rect x="489.195" y="109.501" width="10.4609" height="10.4609" transform="rotate(35 489.195 109.501)" stroke="url(#paint24_linear)"/>
<rect x="489.195" y="109.501" width="10.4609" height="10.4609" transform="rotate(35 489.195 109.501)" stroke="url(#paint25_linear)"/>
<rect x="407.615" y="252.912" width="149.537" height="149.537" transform="rotate(35 407.615 252.912)" stroke="url(#paint26_linear)"/>
<rect x="406.453" y="246.323" width="10.4609" height="10.4609" transform="rotate(35 406.453 246.323)" fill="#F3F4F8" stroke="url(#paint27_linear)"/>
<rect x="321.256" y="367.997" width="10.4609" height="10.4609" transform="rotate(35 321.256 367.997)" fill="#F3F4F8" stroke="url(#paint28_linear)"/>
<rect x="442.93" y="453.195" width="10.4609" height="10.4609" transform="rotate(35 442.93 453.195)" fill="#F3F4F8" stroke="url(#paint29_linear)"/>
<rect x="528.127" y="331.52" width="10.4609" height="10.4609" transform="rotate(35 528.127 331.52)" fill="#F3F4F8" stroke="url(#paint30_linear)"/>
<rect x="416" y="432" width="56" height="51" rx="15.7647" fill="url(#paint31_linear)"/>
<path d="M439.092 455.252C439.092 455.775 438.966 456.265 438.714 456.722C438.471 457.179 438.084 457.548 437.552 457.828C437.029 458.108 436.367 458.248 435.564 458.248H433.926V462H431.966V452.228H435.564C436.32 452.228 436.964 452.359 437.496 452.62C438.028 452.881 438.425 453.241 438.686 453.698C438.957 454.155 439.092 454.673 439.092 455.252ZM435.48 456.666C436.021 456.666 436.423 456.545 436.684 456.302C436.945 456.05 437.076 455.7 437.076 455.252C437.076 454.3 436.544 453.824 435.48 453.824H433.926V456.666H435.48ZM443.9 452.228C444.926 452.228 445.827 452.429 446.602 452.83C447.386 453.231 447.988 453.805 448.408 454.552C448.837 455.289 449.052 456.148 449.052 457.128C449.052 458.108 448.837 458.967 448.408 459.704C447.988 460.432 447.386 460.997 446.602 461.398C445.827 461.799 444.926 462 443.9 462H440.484V452.228H443.9ZM443.83 460.334C444.856 460.334 445.65 460.054 446.21 459.494C446.77 458.934 447.05 458.145 447.05 457.128C447.05 456.111 446.77 455.317 446.21 454.748C445.65 454.169 444.856 453.88 443.83 453.88H442.444V460.334H443.83ZM456.553 452.228V453.81H452.479V456.316H455.601V457.87H452.479V462H450.519V452.228H456.553Z" fill="#F3F4F8"/>
<rect x="342" y="452.114" width="342" height="87.1136" rx="20" transform="rotate(-180 342 452.114)" fill="#252836"/>
<path opacity="0.7" d="M209.674 408.557C209.674 423.871 197.292 436.285 182.018 436.285C166.744 436.285 154.362 423.871 154.362 408.557C154.362 393.243 166.744 380.829 182.018 380.829C197.292 380.829 209.674 393.243 209.674 408.557ZM159.893 408.557C159.893 420.808 169.799 430.74 182.018 430.74C194.237 430.74 204.143 420.808 204.143 408.557C204.143 396.306 194.237 386.374 182.018 386.374C169.799 386.374 159.893 396.306 159.893 408.557Z" fill="#9CB4FA"/>
<path d="M182.018 383.601C182.018 382.07 183.263 380.814 184.786 380.968C190.518 381.546 195.952 383.908 200.307 387.758C205.359 392.223 208.612 398.383 209.456 405.082C210.3 411.781 208.677 418.558 204.892 424.143C201.629 428.957 196.952 432.599 191.545 434.588C190.107 435.117 188.587 434.21 188.207 432.725C187.828 431.243 188.73 429.75 190.152 429.186C194.26 427.558 197.81 424.724 200.317 421.025C203.345 416.558 204.644 411.136 203.969 405.777C203.293 400.418 200.691 395.49 196.65 391.917C193.305 388.961 189.166 387.102 184.784 386.548C183.264 386.356 182.018 385.133 182.018 383.601Z" fill="url(#paint32_linear)"/>
<path d="M182.018 383.601C182.018 382.07 183.263 380.814 184.786 380.968C190.518 381.546 195.952 383.908 200.307 387.758C205.359 392.223 208.612 398.383 209.456 405.082C210.3 411.781 208.677 418.558 204.892 424.143C201.629 428.957 196.952 432.599 191.545 434.588C190.107 435.117 188.587 434.21 188.207 432.725C187.828 431.243 188.73 429.75 190.152 429.186C194.26 427.558 197.81 424.724 200.317 421.025C203.345 416.558 204.644 411.136 203.969 405.777C203.293 400.418 200.691 395.49 196.65 391.917C193.305 388.961 189.166 387.102 184.784 386.548C183.264 386.356 182.018 385.133 182.018 383.601Z" fill="url(#paint33_linear)"/>
<path d="M172.134 410.815V410.088L175.833 404.966H176.982V409.983H178.036V410.815H176.982V412.512H176.033V410.815H172.134ZM176.075 405.967L173.24 409.983H176.075V405.967ZM183.241 406.705C183.086 405.925 182.605 405.535 181.797 405.535C181.172 405.535 180.705 405.778 180.395 406.262C180.086 406.74 179.935 407.531 179.942 408.634C180.104 408.268 180.371 407.984 180.743 407.78C181.123 407.569 181.544 407.464 182.008 407.464C182.732 407.464 183.308 407.689 183.736 408.138C184.172 408.588 184.39 409.21 184.39 410.004C184.39 410.482 184.295 410.91 184.105 411.29C183.923 411.669 183.642 411.971 183.262 412.196C182.89 412.421 182.437 412.533 181.903 412.533C181.179 412.533 180.613 412.372 180.206 412.048C179.798 411.725 179.514 411.279 179.352 410.71C179.19 410.141 179.11 409.438 179.11 408.602C179.11 406.023 180.009 404.734 181.808 404.734C182.496 404.734 183.037 404.92 183.431 405.293C183.824 405.665 184.056 406.136 184.126 406.705H183.241ZM181.808 408.275C181.506 408.275 181.221 408.339 180.954 408.465C180.687 408.585 180.469 408.771 180.301 409.024C180.139 409.27 180.058 409.572 180.058 409.93C180.058 410.464 180.213 410.9 180.522 411.237C180.831 411.567 181.274 411.732 181.85 411.732C182.342 411.732 182.732 411.581 183.02 411.279C183.315 410.97 183.462 410.555 183.462 410.035C183.462 409.487 183.322 409.059 183.041 408.75C182.76 408.433 182.349 408.275 181.808 408.275ZM185.473 406.61C185.473 406.132 185.617 405.753 185.905 405.472C186.193 405.184 186.562 405.04 187.012 405.04C187.461 405.04 187.83 405.184 188.118 405.472C188.406 405.753 188.55 406.132 188.55 406.61C188.55 407.095 188.406 407.481 188.118 407.769C187.83 408.051 187.461 408.191 187.012 408.191C186.562 408.191 186.193 408.051 185.905 407.769C185.617 407.481 185.473 407.095 185.473 406.61ZM191.628 405.156L187.359 412.512H186.411L190.679 405.156H191.628ZM187.012 405.63C186.773 405.63 186.583 405.714 186.443 405.883C186.309 406.045 186.242 406.287 186.242 406.61C186.242 406.933 186.309 407.179 186.443 407.348C186.583 407.517 186.773 407.601 187.012 407.601C187.251 407.601 187.44 407.517 187.581 407.348C187.721 407.172 187.792 406.926 187.792 406.61C187.792 406.287 187.721 406.045 187.581 405.883C187.44 405.714 187.251 405.63 187.012 405.63ZM189.51 411.058C189.51 410.573 189.654 410.19 189.942 409.909C190.23 409.621 190.599 409.477 191.048 409.477C191.498 409.477 191.863 409.621 192.144 409.909C192.432 410.19 192.576 410.573 192.576 411.058C192.576 411.536 192.432 411.918 192.144 412.207C191.863 412.495 191.498 412.639 191.048 412.639C190.599 412.639 190.23 412.498 189.942 412.217C189.654 411.929 189.51 411.543 189.51 411.058ZM191.038 410.078C190.799 410.078 190.609 410.162 190.469 410.331C190.328 410.492 190.258 410.735 190.258 411.058C190.258 411.374 190.328 411.616 190.469 411.785C190.609 411.947 190.799 412.027 191.038 412.027C191.277 412.027 191.466 411.947 191.607 411.785C191.747 411.616 191.818 411.374 191.818 411.058C191.818 410.735 191.747 410.492 191.607 410.331C191.466 410.162 191.277 410.078 191.038 410.078Z" fill="#F3F4F8"/>
<path d="M38.2762 394.358C39.33 394.358 40.2404 394.557 41.0076 394.954C41.784 395.343 42.3756 395.902 42.7823 396.632C43.1982 397.362 43.4062 398.222 43.4062 399.211C43.4062 400.2 43.1982 401.06 42.7823 401.79C42.3756 402.511 41.784 403.065 41.0076 403.454C40.2404 403.832 39.33 404.022 38.2762 404.022H35.2675V394.358H38.2762ZM38.2762 402.982C39.5241 402.982 40.4761 402.654 41.1324 401.998C41.7887 401.332 42.1168 400.403 42.1168 399.211C42.1168 398.009 41.784 397.071 41.1185 396.396C40.4622 395.722 39.5148 395.384 38.2762 395.384H36.5292V402.982H38.2762ZM48.3841 404.147C47.6724 404.147 47.0254 403.985 46.4431 403.661C45.87 403.338 45.4171 402.88 45.0843 402.289C44.7608 401.688 44.599 400.995 44.599 400.209C44.599 399.433 44.7654 398.749 45.0982 398.157C45.4402 397.556 45.9023 397.099 46.4847 396.785C47.067 396.461 47.7186 396.299 48.4396 396.299C49.1606 396.299 49.8122 396.461 50.3945 396.785C50.9769 397.099 51.4344 397.552 51.7672 398.143C52.1092 398.735 52.2802 399.423 52.2802 400.209C52.2802 400.995 52.1045 401.688 51.7533 402.289C51.4113 402.88 50.9445 403.338 50.353 403.661C49.7614 403.985 49.1051 404.147 48.3841 404.147ZM48.3841 403.038C48.8371 403.038 49.2622 402.931 49.6597 402.719C50.0572 402.506 50.3761 402.187 50.6164 401.762C50.866 401.337 50.9907 400.819 50.9907 400.209C50.9907 399.599 50.8706 399.081 50.6302 398.656C50.3899 398.231 50.0757 397.917 49.6874 397.713C49.2992 397.501 48.8787 397.395 48.4257 397.395C47.9636 397.395 47.5384 397.501 47.1502 397.713C46.7712 397.917 46.4662 398.231 46.2351 398.656C46.004 399.081 45.8885 399.599 45.8885 400.209C45.8885 400.828 45.9994 401.351 46.2212 401.776C46.4523 402.201 46.7573 402.52 47.1363 402.733C47.5153 402.936 47.9312 403.038 48.3841 403.038ZM53.4677 400.209C53.4677 399.423 53.6248 398.739 53.9391 398.157C54.2533 397.566 54.6878 397.108 55.2424 396.785C55.8062 396.461 56.4486 396.299 57.1696 396.299C58.1032 396.299 58.8703 396.526 59.4712 396.979C60.0812 397.432 60.4833 398.06 60.6774 398.864H59.3186C59.1892 398.402 58.9351 398.037 58.5561 397.769C58.1863 397.501 57.7242 397.367 57.1696 397.367C56.4486 397.367 55.8663 397.616 55.4226 398.116C54.9789 398.605 54.7571 399.303 54.7571 400.209C54.7571 401.124 54.9789 401.831 55.4226 402.33C55.8663 402.83 56.4486 403.079 57.1696 403.079C57.7242 403.079 58.1863 402.95 58.5561 402.691C58.9258 402.432 59.18 402.062 59.3186 401.582H60.6774C60.4741 402.358 60.0673 402.982 59.4573 403.454C58.8472 403.916 58.0847 404.147 57.1696 404.147C56.4486 404.147 55.8062 403.985 55.2424 403.661C54.6878 403.338 54.2533 402.88 53.9391 402.289C53.6248 401.697 53.4677 401.004 53.4677 400.209ZM69.0992 396.424V404.022H67.8375V402.899C67.5972 403.287 67.2598 403.592 66.8254 403.814C66.4002 404.027 65.9288 404.133 65.4112 404.133C64.8196 404.133 64.2881 404.013 63.8167 403.772C63.3453 403.523 62.971 403.153 62.6937 402.663C62.4256 402.173 62.2916 401.577 62.2916 400.875V396.424H63.5394V400.708C63.5394 401.457 63.7289 402.035 64.1079 402.441C64.4868 402.839 65.0045 403.038 65.6607 403.038C66.3355 403.038 66.867 402.83 67.2552 402.414C67.6434 401.998 67.8375 401.392 67.8375 400.597V396.424H69.0992ZM80.3665 396.285C80.9581 396.285 81.4849 396.41 81.9471 396.66C82.4092 396.9 82.7744 397.265 83.0424 397.755C83.3105 398.245 83.4445 398.841 83.4445 399.544V404.022H82.1966V399.724C82.1966 398.966 82.0072 398.388 81.6282 397.991C81.2585 397.584 80.7547 397.381 80.1169 397.381C79.4606 397.381 78.9384 397.593 78.5502 398.018C78.162 398.434 77.9679 399.04 77.9679 399.835V404.022H76.72V399.724C76.72 398.966 76.5305 398.388 76.1516 397.991C75.7818 397.584 75.2781 397.381 74.6403 397.381C73.984 397.381 73.4618 397.593 73.0736 398.018C72.6854 398.434 72.4912 399.04 72.4912 399.835V404.022H71.2295V396.424H72.4912V397.519C72.7408 397.122 73.0736 396.817 73.4895 396.604C73.9147 396.392 74.3815 396.285 74.8899 396.285C75.5276 396.285 76.0915 396.429 76.5814 396.715C77.0713 397.002 77.4364 397.422 77.6767 397.977C77.8893 397.441 78.2405 397.025 78.7304 396.729C79.2203 396.433 79.7657 396.285 80.3665 396.285ZM92.4466 399.932C92.4466 400.172 92.4327 400.426 92.405 400.694H86.3322C86.3784 401.443 86.6326 402.03 87.0947 402.455C87.5661 402.871 88.1346 403.079 88.8001 403.079C89.3455 403.079 89.7984 402.954 90.1589 402.705C90.5286 402.446 90.7874 402.104 90.9353 401.679H92.2941C92.0907 402.409 91.684 403.005 91.074 403.467C90.4639 403.92 89.706 404.147 88.8001 404.147C88.0791 404.147 87.4321 403.985 86.859 403.661C86.2952 403.338 85.8515 402.88 85.528 402.289C85.2045 401.688 85.0427 400.995 85.0427 400.209C85.0427 399.423 85.1999 398.735 85.5141 398.143C85.8284 397.552 86.2675 397.099 86.8313 396.785C87.4044 396.461 88.0607 396.299 88.8001 396.299C89.5211 396.299 90.1589 396.456 90.7135 396.771C91.2681 397.085 91.6933 397.519 91.989 398.074C92.2941 398.619 92.4466 399.239 92.4466 399.932ZM91.1433 399.668C91.1433 399.188 91.037 398.776 90.8244 398.434C90.6118 398.083 90.3206 397.82 89.9509 397.644C89.5904 397.459 89.1883 397.367 88.7447 397.367C88.1069 397.367 87.5615 397.57 87.1086 397.977C86.6649 398.384 86.4107 398.947 86.346 399.668H91.1433ZM97.8139 396.285C98.7382 396.285 99.4869 396.567 100.06 397.131C100.633 397.686 100.92 398.49 100.92 399.544V404.022H99.6718V399.724C99.6718 398.966 99.4823 398.388 99.1033 397.991C98.7244 397.584 98.2067 397.381 97.5505 397.381C96.885 397.381 96.3535 397.589 95.956 398.005C95.5678 398.421 95.3737 399.026 95.3737 399.821V404.022H94.112V396.424H95.3737V397.505C95.6233 397.117 95.9606 396.817 96.3858 396.604C96.8203 396.392 97.2963 396.285 97.8139 396.285ZM104.52 397.464V401.942C104.52 402.312 104.598 402.575 104.755 402.733C104.912 402.88 105.185 402.954 105.573 402.954H106.502V404.022H105.365C104.663 404.022 104.136 403.86 103.785 403.537C103.434 403.213 103.258 402.682 103.258 401.942V397.464H102.274V396.424H103.258V394.511H104.52V396.424H106.502V397.464H104.52ZM110.721 404.147C110.138 404.147 109.616 404.05 109.154 403.856C108.692 403.652 108.327 403.375 108.059 403.024C107.791 402.663 107.643 402.252 107.615 401.79H108.918C108.955 402.169 109.131 402.478 109.445 402.719C109.769 402.959 110.189 403.079 110.707 403.079C111.188 403.079 111.567 402.973 111.844 402.76C112.121 402.548 112.26 402.28 112.26 401.956C112.26 401.623 112.112 401.378 111.816 401.221C111.52 401.055 111.063 400.893 110.443 400.736C109.88 400.588 109.417 400.44 109.057 400.292C108.706 400.135 108.401 399.909 108.142 399.613C107.892 399.308 107.768 398.91 107.768 398.421C107.768 398.032 107.883 397.676 108.114 397.353C108.345 397.029 108.673 396.775 109.099 396.59C109.524 396.396 110.009 396.299 110.554 396.299C111.396 396.299 112.075 396.512 112.593 396.937C113.11 397.362 113.387 397.945 113.424 398.684H112.163C112.135 398.287 111.973 397.968 111.677 397.727C111.391 397.487 111.003 397.367 110.513 397.367C110.06 397.367 109.699 397.464 109.431 397.658C109.163 397.852 109.029 398.106 109.029 398.421C109.029 398.67 109.108 398.878 109.265 399.044C109.431 399.202 109.635 399.331 109.875 399.433C110.125 399.525 110.467 399.631 110.901 399.752C111.446 399.899 111.89 400.047 112.232 400.195C112.574 400.334 112.865 400.547 113.106 400.833C113.355 401.12 113.485 401.494 113.494 401.956C113.494 402.372 113.378 402.746 113.147 403.079C112.916 403.412 112.588 403.675 112.163 403.869C111.747 404.054 111.266 404.147 110.721 404.147ZM36.5292 416.824C36.7788 416.39 37.1485 416.029 37.6384 415.743C38.1376 415.447 38.7153 415.299 39.3715 415.299C40.0463 415.299 40.6564 415.461 41.2017 415.785C41.7563 416.108 42.1907 416.566 42.505 417.157C42.8193 417.739 42.9764 418.419 42.9764 419.195C42.9764 419.962 42.8193 420.646 42.505 421.247C42.1907 421.848 41.7563 422.315 41.2017 422.648C40.6564 422.98 40.0463 423.147 39.3715 423.147C38.7245 423.147 38.1514 423.003 37.6523 422.717C37.1624 422.421 36.7881 422.056 36.5292 421.622V426.627H35.2675V415.424H36.5292V416.824ZM41.687 419.195C41.687 418.622 41.5714 418.123 41.3404 417.698C41.1093 417.273 40.795 416.949 40.3975 416.727C40.0093 416.505 39.5795 416.395 39.1081 416.395C38.646 416.395 38.2161 416.51 37.8187 416.741C37.4305 416.963 37.1162 417.291 36.8759 417.726C36.6448 418.151 36.5292 418.645 36.5292 419.209C36.5292 419.782 36.6448 420.286 36.8759 420.72C37.1162 421.146 37.4305 421.474 37.8187 421.705C38.2161 421.927 38.646 422.038 39.1081 422.038C39.5795 422.038 40.0093 421.927 40.3975 421.705C40.795 421.474 41.1093 421.146 41.3404 420.72C41.5714 420.286 41.687 419.778 41.687 419.195ZM45.8989 416.658C46.1207 416.224 46.435 415.886 46.8417 415.646C47.2576 415.406 47.7614 415.285 48.3529 415.285V416.589H48.0202C46.606 416.589 45.8989 417.356 45.8989 418.89V423.022H44.6372V415.424H45.8989V416.658ZM53.1231 423.147C52.4114 423.147 51.7644 422.985 51.182 422.661C50.6089 422.338 50.156 421.88 49.8233 421.289C49.4998 420.688 49.338 419.995 49.338 419.209C49.338 418.433 49.5044 417.749 49.8371 417.157C50.1791 416.556 50.6413 416.099 51.2236 415.785C51.8059 415.461 52.4576 415.299 53.1786 415.299C53.8995 415.299 54.5512 415.461 55.1335 415.785C55.7158 416.099 56.1734 416.552 56.5061 417.143C56.8481 417.735 57.0191 418.423 57.0191 419.209C57.0191 419.995 56.8435 420.688 56.4923 421.289C56.1503 421.88 55.6835 422.338 55.0919 422.661C54.5004 422.985 53.8441 423.147 53.1231 423.147ZM53.1231 422.038C53.576 422.038 54.0012 421.931 54.3987 421.719C54.7961 421.506 55.115 421.187 55.3554 420.762C55.6049 420.337 55.7297 419.819 55.7297 419.209C55.7297 418.599 55.6095 418.081 55.3692 417.656C55.1289 417.231 54.8146 416.917 54.4264 416.713C54.0382 416.501 53.6176 416.395 53.1647 416.395C52.7025 416.395 52.2774 416.501 51.8891 416.713C51.5102 416.917 51.2051 417.231 50.9741 417.656C50.743 418.081 50.6274 418.599 50.6274 419.209C50.6274 419.828 50.7384 420.351 50.9602 420.776C51.1913 421.201 51.4963 421.52 51.8753 421.733C52.2542 421.936 52.6702 422.038 53.1231 422.038ZM61.5065 421.857L63.8635 415.424H65.2084L62.2275 423.022H60.7578L57.7768 415.424H59.1356L61.5065 421.857ZM67.1016 414.19C66.8613 414.19 66.6579 414.107 66.4915 413.94C66.3252 413.774 66.242 413.571 66.242 413.33C66.242 413.09 66.3252 412.887 66.4915 412.72C66.6579 412.554 66.8613 412.471 67.1016 412.471C67.3327 412.471 67.5268 412.554 67.6839 412.72C67.8503 412.887 67.9335 413.09 67.9335 413.33C67.9335 413.571 67.8503 413.774 67.6839 413.94C67.5268 414.107 67.3327 414.19 67.1016 414.19ZM67.7117 415.424V423.022H66.45V415.424H67.7117ZM69.3906 419.195C69.3906 418.419 69.5477 417.739 69.862 417.157C70.1763 416.566 70.6061 416.108 71.1514 415.785C71.706 415.461 72.3253 415.299 73.0093 415.299C73.6009 415.299 74.1509 415.438 74.6593 415.715C75.1676 415.983 75.5558 416.339 75.8239 416.783V412.762H77.0995V423.022H75.8239V421.594C75.5743 422.047 75.2046 422.421 74.7147 422.717C74.2248 423.003 73.6517 423.147 72.9955 423.147C72.3207 423.147 71.706 422.98 71.1514 422.648C70.6061 422.315 70.1763 421.848 69.862 421.247C69.5477 420.646 69.3906 419.962 69.3906 419.195ZM75.8239 419.209C75.8239 418.636 75.7084 418.137 75.4773 417.712C75.2462 417.287 74.9319 416.963 74.5345 416.741C74.1463 416.51 73.7164 416.395 73.245 416.395C72.7736 416.395 72.3438 416.505 71.9556 416.727C71.5674 416.949 71.2577 417.273 71.0267 417.698C70.7956 418.123 70.68 418.622 70.68 419.195C70.68 419.778 70.7956 420.286 71.0267 420.72C71.2577 421.146 71.5674 421.474 71.9556 421.705C72.3438 421.927 72.7736 422.038 73.245 422.038C73.7164 422.038 74.1463 421.927 74.5345 421.705C74.9319 421.474 75.2462 421.146 75.4773 420.72C75.7084 420.286 75.8239 419.782 75.8239 419.209ZM86.1641 418.932C86.1641 419.172 86.1502 419.426 86.1225 419.694H80.0496C80.0959 420.443 80.3501 421.03 80.8122 421.455C81.2836 421.871 81.8521 422.079 82.5176 422.079C83.0629 422.079 83.5159 421.954 83.8764 421.705C84.2461 421.446 84.5049 421.104 84.6528 420.679H86.0115C85.8082 421.409 85.4015 422.005 84.7914 422.467C84.1814 422.92 83.4234 423.147 82.5176 423.147C81.7966 423.147 81.1496 422.985 80.5765 422.661C80.0127 422.338 79.569 421.88 79.2455 421.289C78.922 420.688 78.7602 419.995 78.7602 419.209C78.7602 418.423 78.9174 417.735 79.2316 417.143C79.5459 416.552 79.9849 416.099 80.5488 415.785C81.1219 415.461 81.7781 415.299 82.5176 415.299C83.2386 415.299 83.8764 415.456 84.4309 415.771C84.9855 416.085 85.4107 416.519 85.7065 417.074C86.0115 417.619 86.1641 418.239 86.1641 418.932ZM84.8608 418.668C84.8608 418.188 84.7545 417.776 84.5419 417.434C84.3293 417.083 84.0381 416.82 83.6684 416.644C83.3079 416.459 82.9058 416.367 82.4621 416.367C81.8244 416.367 81.279 416.57 80.8261 416.977C80.3824 417.384 80.1282 417.947 80.0635 418.668H84.8608ZM87.3581 419.195C87.3581 418.419 87.5152 417.739 87.8295 417.157C88.1437 416.566 88.5735 416.108 89.1189 415.785C89.6735 415.461 90.2928 415.299 90.9768 415.299C91.5684 415.299 92.1183 415.438 92.6267 415.715C93.1351 415.983 93.5233 416.339 93.7914 416.783V412.762H95.0669V423.022H93.7914V421.594C93.5418 422.047 93.1721 422.421 92.6822 422.717C92.1923 423.003 91.6192 423.147 90.9629 423.147C90.2882 423.147 89.6735 422.98 89.1189 422.648C88.5735 422.315 88.1437 421.848 87.8295 421.247C87.5152 420.646 87.3581 419.962 87.3581 419.195ZM93.7914 419.209C93.7914 418.636 93.6758 418.137 93.4447 417.712C93.2137 417.287 92.8994 416.963 92.5019 416.741C92.1137 416.51 91.6839 416.395 91.2125 416.395C90.7411 416.395 90.3113 416.505 89.9231 416.727C89.5348 416.949 89.2252 417.273 88.9941 417.698C88.763 418.123 88.6475 418.622 88.6475 419.195C88.6475 419.778 88.763 420.286 88.9941 420.72C89.2252 421.146 89.5348 421.474 89.9231 421.705C90.3113 421.927 90.7411 422.038 91.2125 422.038C91.6839 422.038 92.1137 421.927 92.5019 421.705C92.8994 421.474 93.2137 421.146 93.4447 420.72C93.6758 420.286 93.7914 419.782 93.7914 419.209Z" fill="#F3F4F8"/>
<path d="M271.577 389.845V396.242H270.736V391.472L268.61 396.242H268.019L265.883 391.463V396.242H265.042V389.845H265.948L268.314 395.133L270.681 389.845H271.577ZM272.689 393.691C272.689 393.173 272.794 392.72 273.004 392.332C273.213 391.937 273.5 391.632 273.863 391.417C274.233 391.201 274.643 391.093 275.093 391.093C275.536 391.093 275.921 391.189 276.248 391.38C276.575 391.571 276.818 391.811 276.978 392.101V391.176H277.829V396.242H276.978V395.299C276.812 395.595 276.562 395.841 276.23 396.038C275.903 396.229 275.521 396.325 275.083 396.325C274.634 396.325 274.227 396.214 273.863 395.992C273.5 395.77 273.213 395.459 273.004 395.059C272.794 394.658 272.689 394.202 272.689 393.691ZM276.978 393.7C276.978 393.318 276.901 392.985 276.747 392.702C276.593 392.418 276.384 392.202 276.119 392.055C275.86 391.9 275.573 391.823 275.259 391.823C274.945 391.823 274.658 391.897 274.399 392.045C274.141 392.193 273.934 392.409 273.78 392.692C273.626 392.976 273.549 393.309 273.549 393.691C273.549 394.079 273.626 394.418 273.78 394.707C273.934 394.991 274.141 395.21 274.399 395.364C274.658 395.511 274.945 395.585 275.259 395.585C275.573 395.585 275.86 395.511 276.119 395.364C276.384 395.21 276.593 394.991 276.747 394.707C276.901 394.418 276.978 394.082 276.978 393.7ZM281.894 396.242L280.692 394.356L279.537 396.242H278.659L280.295 393.728L278.659 391.176H279.611L280.812 393.053L281.958 391.176H282.836L281.21 393.681L282.846 396.242H281.894ZM290.26 390.289H287.016V392.397C287.157 392.199 287.367 392.039 287.644 391.916C287.921 391.786 288.22 391.722 288.541 391.722C289.052 391.722 289.468 391.83 289.789 392.045C290.109 392.255 290.337 392.529 290.473 392.868C290.614 393.201 290.685 393.555 290.685 393.931C290.685 394.375 290.602 394.772 290.436 395.123C290.269 395.475 290.013 395.752 289.668 395.955C289.329 396.159 288.907 396.26 288.402 396.26C287.755 396.26 287.231 396.094 286.831 395.761C286.43 395.428 286.187 394.985 286.1 394.43H286.923C287.003 394.781 287.173 395.055 287.431 395.253C287.69 395.45 288.017 395.548 288.411 395.548C288.898 395.548 289.265 395.404 289.511 395.114C289.758 394.818 289.881 394.43 289.881 393.949C289.881 393.469 289.758 393.099 289.511 392.84C289.265 392.575 288.901 392.443 288.421 392.443C288.094 392.443 287.807 392.523 287.561 392.683C287.321 392.837 287.145 393.05 287.034 393.321H286.239V389.55H290.26V390.289ZM291.581 390.326V389.559H293.319V396.242H292.468V390.326H291.581ZM294.662 395.567C295.445 394.938 296.058 394.424 296.501 394.023C296.945 393.617 297.318 393.195 297.62 392.757C297.928 392.313 298.082 391.879 298.082 391.454C298.082 391.053 297.983 390.739 297.786 390.511C297.595 390.277 297.284 390.16 296.853 390.16C296.434 390.16 296.107 390.292 295.873 390.557C295.645 390.816 295.522 391.164 295.503 391.602H294.69C294.714 390.911 294.924 390.378 295.318 390.003C295.713 389.627 296.221 389.439 296.843 389.439C297.478 389.439 297.98 389.614 298.35 389.966C298.726 390.317 298.914 390.801 298.914 391.417C298.914 391.928 298.76 392.427 298.452 392.914C298.15 393.395 297.805 393.82 297.416 394.19C297.028 394.553 296.532 394.978 295.928 395.465H299.108V396.168H294.662V395.567Z" fill="#B1B1B5"/>
<path d="M263.339 410.287C263.46 408.7 264.072 407.458 265.176 406.561C266.281 405.663 267.713 405.215 269.473 405.215C270.646 405.215 271.655 405.43 272.501 405.862C273.363 406.276 274.01 406.845 274.442 407.57C274.89 408.295 275.115 409.114 275.115 410.029C275.115 411.098 274.804 412.021 274.183 412.798C273.579 413.574 272.785 414.075 271.802 414.299V414.428C272.923 414.704 273.812 415.248 274.468 416.059C275.123 416.87 275.451 417.931 275.451 419.242C275.451 420.226 275.227 421.114 274.778 421.908C274.33 422.684 273.657 423.297 272.76 423.746C271.862 424.194 270.784 424.418 269.524 424.418C267.695 424.418 266.194 423.944 265.021 422.995C263.848 422.029 263.192 420.666 263.054 418.906H265.332C265.452 419.941 265.875 420.786 266.6 421.442C267.324 422.098 268.291 422.426 269.499 422.426C270.706 422.426 271.621 422.115 272.242 421.494C272.88 420.856 273.199 420.036 273.199 419.035C273.199 417.741 272.768 416.809 271.905 416.24C271.043 415.671 269.74 415.386 267.997 415.386H267.402V413.419H268.023C269.611 413.402 270.81 413.143 271.621 412.643C272.432 412.125 272.837 411.331 272.837 410.262C272.837 409.347 272.535 408.614 271.931 408.062C271.345 407.509 270.499 407.233 269.395 407.233C268.325 407.233 267.463 407.509 266.807 408.062C266.151 408.614 265.763 409.356 265.642 410.287H263.339ZM278.01 407.725V405.577H282.876V424.289H280.495V407.725H278.01ZM286.636 422.4C288.828 420.64 290.544 419.199 291.787 418.078C293.029 416.939 294.073 415.757 294.918 414.532C295.781 413.29 296.212 412.073 296.212 410.883C296.212 409.761 295.936 408.881 295.384 408.243C294.849 407.587 293.978 407.259 292.77 407.259C291.597 407.259 290.683 407.63 290.027 408.372C289.388 409.097 289.043 410.072 288.992 411.297H286.714C286.783 409.364 287.37 407.872 288.474 406.819C289.578 405.767 291.002 405.241 292.744 405.241C294.522 405.241 295.928 405.732 296.963 406.716C298.015 407.699 298.542 409.054 298.542 410.779C298.542 412.211 298.11 413.609 297.248 414.972C296.402 416.318 295.436 417.508 294.349 418.543C293.262 419.561 291.873 420.752 290.182 422.115H299.085V424.082H286.636V422.4Z" fill="#ED5158"/>
<g filter="url(#filter0_d)">
<rect x="350" y="173" width="179" height="162.943" rx="36.2348" fill="#252836"/>
</g>
<ellipse cx="439.319" cy="254.291" rx="62.1427" ry="62.0995" fill="#9CB4FA"/>
<path d="M389.93 291.98C396.132 300.096 404.242 306.559 413.54 310.795C422.839 315.032 433.04 316.911 443.239 316.267C453.438 315.623 463.32 312.475 472.011 307.102C480.702 301.73 487.933 294.298 493.063 285.466C498.194 276.634 501.065 266.673 501.423 256.467C501.781 246.261 499.615 236.124 495.117 226.955C490.618 217.785 483.926 209.866 475.633 203.898C467.34 197.93 457.702 194.098 447.573 192.742L442.918 227.45C447.336 228.042 451.538 229.713 455.155 232.315C458.771 234.918 461.69 238.371 463.651 242.37C465.613 246.369 466.558 250.789 466.402 255.24C466.245 259.691 464.993 264.034 462.756 267.886C460.519 271.737 457.366 274.978 453.576 277.321C449.786 279.664 445.476 281.037 441.028 281.318C436.58 281.599 432.132 280.779 428.077 278.932C424.022 277.084 420.486 274.266 417.781 270.727L389.93 291.98Z" fill="url(#paint34_linear)"/>
<path d="M389.93 291.98C396.132 300.096 404.242 306.559 413.54 310.795C422.839 315.032 433.04 316.911 443.239 316.267C453.438 315.623 463.32 312.475 472.011 307.102C480.702 301.73 487.933 294.298 493.063 285.466C498.194 276.634 501.065 266.673 501.423 256.467C501.781 246.261 499.615 236.124 495.117 226.955C490.618 217.785 483.926 209.866 475.633 203.898C467.34 197.93 457.702 194.098 447.573 192.742L442.918 227.45C447.336 228.042 451.538 229.713 455.155 232.315C458.771 234.918 461.69 238.371 463.651 242.37C465.613 246.369 466.558 250.789 466.402 255.24C466.245 259.691 464.993 264.034 462.756 267.886C460.519 271.737 457.366 274.978 453.576 277.321C449.786 279.664 445.476 281.037 441.028 281.318C436.58 281.599 432.132 280.779 428.077 278.932C424.022 277.084 420.486 274.266 417.781 270.727L389.93 291.98Z" fill="url(#paint35_linear)"/>
<g filter="url(#filter1_d)">
<ellipse cx="439.319" cy="254.291" rx="39.2875" ry="39.3148" transform="rotate(-90 439.319 254.291)" fill="#252836"/>
</g>
<path d="M429.958 233.273V236.801C429.958 237.297 430.078 237.665 430.318 237.905C430.563 238.145 430.902 238.265 431.334 238.265C431.76 238.265 432.094 238.145 432.334 237.905C432.579 237.665 432.702 237.297 432.702 236.801V233.273H433.43V236.793C433.43 237.257 433.336 237.649 433.15 237.969C432.963 238.284 432.71 238.518 432.39 238.673C432.075 238.828 431.72 238.905 431.326 238.905C430.931 238.905 430.574 238.828 430.254 238.673C429.939 238.518 429.688 238.284 429.502 237.969C429.32 237.649 429.23 237.257 429.23 236.793V233.273H429.958ZM436.196 238.921C435.86 238.921 435.559 238.865 435.292 238.753C435.025 238.636 434.815 238.476 434.66 238.273C434.505 238.065 434.42 237.828 434.404 237.561H435.156C435.177 237.78 435.279 237.958 435.46 238.097C435.647 238.236 435.889 238.305 436.188 238.305C436.465 238.305 436.684 238.244 436.844 238.121C437.004 237.998 437.084 237.844 437.084 237.657C437.084 237.465 436.999 237.324 436.828 237.233C436.657 237.137 436.393 237.044 436.036 236.953C435.711 236.868 435.444 236.782 435.236 236.697C435.033 236.606 434.857 236.476 434.708 236.305C434.564 236.129 434.492 235.9 434.492 235.617C434.492 235.393 434.559 235.188 434.692 235.001C434.825 234.814 435.015 234.668 435.26 234.561C435.505 234.449 435.785 234.393 436.1 234.393C436.585 234.393 436.977 234.516 437.276 234.761C437.575 235.006 437.735 235.342 437.756 235.769H437.028C437.012 235.54 436.919 235.356 436.748 235.217C436.583 235.078 436.359 235.009 436.076 235.009C435.815 235.009 435.607 235.065 435.452 235.177C435.297 235.289 435.22 235.436 435.22 235.617C435.22 235.761 435.265 235.881 435.356 235.977C435.452 236.068 435.569 236.142 435.708 236.201C435.852 236.254 436.049 236.316 436.3 236.385C436.615 236.47 436.871 236.556 437.068 236.641C437.265 236.721 437.433 236.844 437.572 237.009C437.716 237.174 437.791 237.39 437.796 237.657C437.796 237.897 437.729 238.113 437.596 238.305C437.463 238.497 437.273 238.649 437.028 238.761C436.788 238.868 436.511 238.921 436.196 238.921ZM442.824 236.489C442.824 236.628 442.816 236.774 442.8 236.929H439.296C439.322 237.361 439.469 237.7 439.736 237.945C440.008 238.185 440.336 238.305 440.72 238.305C441.034 238.305 441.296 238.233 441.504 238.089C441.717 237.94 441.866 237.742 441.952 237.497H442.736C442.618 237.918 442.384 238.262 442.032 238.529C441.68 238.79 441.242 238.921 440.72 238.921C440.304 238.921 439.93 238.828 439.6 238.641C439.274 238.454 439.018 238.19 438.832 237.849C438.645 237.502 438.552 237.102 438.552 236.649C438.552 236.196 438.642 235.798 438.824 235.457C439.005 235.116 439.258 234.854 439.584 234.673C439.914 234.486 440.293 234.393 440.72 234.393C441.136 234.393 441.504 234.484 441.824 234.665C442.144 234.846 442.389 235.097 442.56 235.417C442.736 235.732 442.824 236.089 442.824 236.489ZM442.072 236.337C442.072 236.06 442.01 235.822 441.888 235.625C441.765 235.422 441.597 235.27 441.384 235.169C441.176 235.062 440.944 235.009 440.688 235.009C440.32 235.009 440.005 235.126 439.744 235.361C439.488 235.596 439.341 235.921 439.304 236.337H442.072ZM443.513 236.641C443.513 236.193 443.603 235.801 443.785 235.465C443.966 235.124 444.214 234.86 444.529 234.673C444.849 234.486 445.206 234.393 445.601 234.393C445.942 234.393 446.259 234.473 446.553 234.633C446.846 234.788 447.07 234.993 447.225 235.249V232.929H447.961V238.849H447.225V238.025C447.081 238.286 446.867 238.502 446.585 238.673C446.302 238.838 445.971 238.921 445.593 238.921C445.203 238.921 444.849 238.825 444.529 238.633C444.214 238.441 443.966 238.172 443.785 237.825C443.603 237.478 443.513 237.084 443.513 236.641ZM447.225 236.649C447.225 236.318 447.158 236.03 447.025 235.785C446.891 235.54 446.71 235.353 446.481 235.225C446.257 235.092 446.009 235.025 445.737 235.025C445.465 235.025 445.217 235.089 444.993 235.217C444.769 235.345 444.59 235.532 444.457 235.777C444.323 236.022 444.257 236.31 444.257 236.641C444.257 236.977 444.323 237.27 444.457 237.521C444.59 237.766 444.769 237.956 444.993 238.089C445.217 238.217 445.465 238.281 445.737 238.281C446.009 238.281 446.257 238.217 446.481 238.089C446.71 237.956 446.891 237.766 447.025 237.521C447.158 237.27 447.225 236.98 447.225 236.649Z" fill="#F3F4F8"/>
<path d="M421.066 275.923C421.743 275.379 422.274 274.934 422.658 274.587C423.042 274.235 423.365 273.87 423.626 273.491C423.893 273.107 424.026 272.731 424.026 272.363C424.026 272.017 423.941 271.745 423.77 271.547C423.605 271.345 423.335 271.243 422.962 271.243C422.599 271.243 422.317 271.358 422.114 271.587C421.917 271.811 421.81 272.113 421.794 272.491H421.09C421.111 271.894 421.293 271.433 421.634 271.107C421.975 270.782 422.415 270.619 422.954 270.619C423.503 270.619 423.938 270.771 424.258 271.075C424.583 271.379 424.746 271.798 424.746 272.331C424.746 272.774 424.613 273.206 424.346 273.627C424.085 274.043 423.786 274.411 423.45 274.731C423.114 275.046 422.685 275.414 422.162 275.835H424.914V276.443H421.066V275.923ZM425.668 275.923C426.345 275.379 426.876 274.934 427.26 274.587C427.644 274.235 427.966 273.87 428.228 273.491C428.494 273.107 428.628 272.731 428.628 272.363C428.628 272.017 428.542 271.745 428.372 271.547C428.206 271.345 427.937 271.243 427.564 271.243C427.201 271.243 426.918 271.358 426.716 271.587C426.518 271.811 426.412 272.113 426.396 272.491H425.692C425.713 271.894 425.894 271.433 426.236 271.107C426.577 270.782 427.017 270.619 427.556 270.619C428.105 270.619 428.54 270.771 428.86 271.075C429.185 271.379 429.348 271.798 429.348 272.331C429.348 272.774 429.214 273.206 428.948 273.627C428.686 274.043 428.388 274.411 428.052 274.731C427.716 275.046 427.286 275.414 426.764 275.835H429.516V276.443H425.668V275.923ZM431.229 275.499L430.333 277.651H429.845L430.429 275.499H431.229ZM435.631 271.355H432.823V273.179C432.946 273.009 433.127 272.87 433.367 272.763C433.607 272.651 433.866 272.595 434.143 272.595C434.586 272.595 434.946 272.689 435.223 272.875C435.5 273.057 435.698 273.294 435.815 273.587C435.938 273.875 435.999 274.182 435.999 274.507C435.999 274.891 435.927 275.235 435.783 275.539C435.639 275.843 435.418 276.083 435.119 276.259C434.826 276.435 434.46 276.523 434.023 276.523C433.463 276.523 433.01 276.379 432.663 276.091C432.316 275.803 432.106 275.419 432.031 274.939H432.743C432.812 275.243 432.959 275.481 433.183 275.651C433.407 275.822 433.69 275.907 434.031 275.907C434.452 275.907 434.77 275.782 434.983 275.531C435.196 275.275 435.303 274.939 435.303 274.523C435.303 274.107 435.196 273.787 434.983 273.563C434.77 273.334 434.455 273.219 434.039 273.219C433.756 273.219 433.508 273.289 433.295 273.427C433.087 273.561 432.935 273.745 432.839 273.979H432.151V270.715H435.631V271.355ZM439.806 268.971L437.614 277.867H436.894L439.078 268.971H439.806ZM443.995 272.099C443.878 271.507 443.512 271.211 442.899 271.211C442.424 271.211 442.07 271.395 441.835 271.763C441.6 272.126 441.486 272.726 441.491 273.563C441.614 273.286 441.816 273.07 442.099 272.915C442.387 272.755 442.707 272.675 443.059 272.675C443.608 272.675 444.046 272.846 444.371 273.187C444.702 273.529 444.867 274.001 444.867 274.603C444.867 274.966 444.795 275.291 444.651 275.579C444.512 275.867 444.299 276.097 444.011 276.267C443.728 276.438 443.384 276.523 442.979 276.523C442.43 276.523 442 276.401 441.691 276.155C441.382 275.91 441.166 275.571 441.043 275.139C440.92 274.707 440.859 274.174 440.859 273.539C440.859 271.582 441.542 270.603 442.907 270.603C443.43 270.603 443.84 270.745 444.139 271.027C444.438 271.31 444.614 271.667 444.667 272.099H443.995ZM442.907 273.291C442.678 273.291 442.462 273.339 442.259 273.435C442.056 273.526 441.891 273.667 441.763 273.859C441.64 274.046 441.579 274.275 441.579 274.547C441.579 274.953 441.696 275.283 441.931 275.539C442.166 275.79 442.502 275.915 442.939 275.915C443.312 275.915 443.608 275.801 443.827 275.571C444.051 275.337 444.163 275.022 444.163 274.627C444.163 274.211 444.056 273.886 443.843 273.651C443.63 273.411 443.318 273.291 442.907 273.291ZM445.849 273.555C445.849 272.638 445.999 271.923 446.297 271.411C446.596 270.894 447.119 270.635 447.865 270.635C448.607 270.635 449.127 270.894 449.425 271.411C449.724 271.923 449.873 272.638 449.873 273.555C449.873 274.489 449.724 275.214 449.425 275.731C449.127 276.249 448.607 276.507 447.865 276.507C447.119 276.507 446.596 276.249 446.297 275.731C445.999 275.214 445.849 274.489 445.849 273.555ZM449.153 273.555C449.153 273.091 449.121 272.699 449.057 272.379C448.999 272.054 448.873 271.793 448.681 271.595C448.495 271.398 448.223 271.299 447.865 271.299C447.503 271.299 447.225 271.398 447.033 271.595C446.847 271.793 446.721 272.054 446.657 272.379C446.599 272.699 446.569 273.091 446.569 273.555C446.569 274.035 446.599 274.438 446.657 274.763C446.721 275.089 446.847 275.35 447.033 275.547C447.225 275.745 447.503 275.843 447.865 275.843C448.223 275.843 448.495 275.745 448.681 275.547C448.873 275.35 448.999 275.089 449.057 274.763C449.121 274.438 449.153 274.035 449.153 273.555ZM455.217 272.547C455.062 272.222 454.838 271.971 454.545 271.795C454.251 271.614 453.91 271.523 453.521 271.523C453.131 271.523 452.779 271.614 452.465 271.795C452.155 271.971 451.91 272.227 451.729 272.563C451.553 272.894 451.465 273.278 451.465 273.715C451.465 274.153 451.553 274.537 451.729 274.867C451.91 275.198 452.155 275.454 452.465 275.635C452.779 275.811 453.131 275.899 453.521 275.899C454.065 275.899 454.513 275.737 454.865 275.411C455.217 275.086 455.422 274.646 455.481 274.091H453.257V273.499H456.257V274.059C456.214 274.518 456.07 274.939 455.825 275.323C455.579 275.702 455.257 276.003 454.857 276.227C454.457 276.446 454.011 276.555 453.521 276.555C453.003 276.555 452.531 276.435 452.105 276.195C451.678 275.95 451.339 275.611 451.089 275.179C450.843 274.747 450.721 274.259 450.721 273.715C450.721 273.171 450.843 272.683 451.089 272.251C451.339 271.814 451.678 271.475 452.105 271.235C452.531 270.99 453.003 270.867 453.521 270.867C454.113 270.867 454.635 271.014 455.089 271.307C455.547 271.601 455.881 272.014 456.089 272.547H455.217ZM460.011 273.635C460.214 273.667 460.398 273.75 460.563 273.883C460.734 274.017 460.867 274.182 460.963 274.379C461.065 274.577 461.115 274.787 461.115 275.011C461.115 275.294 461.043 275.55 460.899 275.779C460.755 276.003 460.545 276.182 460.267 276.315C459.995 276.443 459.673 276.507 459.299 276.507H457.219V270.931H459.219C459.598 270.931 459.921 270.995 460.187 271.123C460.454 271.246 460.654 271.414 460.787 271.627C460.921 271.841 460.987 272.081 460.987 272.347C460.987 272.678 460.897 272.953 460.715 273.171C460.539 273.385 460.305 273.539 460.011 273.635ZM457.947 273.339H459.171C459.513 273.339 459.777 273.259 459.963 273.099C460.15 272.939 460.243 272.718 460.243 272.435C460.243 272.153 460.15 271.931 459.963 271.771C459.777 271.611 459.507 271.531 459.155 271.531H457.947V273.339ZM459.235 275.907C459.598 275.907 459.881 275.822 460.083 275.651C460.286 275.481 460.387 275.243 460.387 274.939C460.387 274.63 460.281 274.387 460.067 274.211C459.854 274.03 459.569 273.939 459.211 273.939H457.947V275.907H459.235Z" fill="#B1B1B5"/>
<path d="M429.922 253.421C429.325 253.186 428.866 252.845 428.546 252.397C428.226 251.949 428.066 251.405 428.066 250.765C428.066 250.189 428.21 249.671 428.498 249.213C428.786 248.743 429.213 248.375 429.778 248.109C430.354 247.831 431.047 247.693 431.858 247.693C432.669 247.693 433.357 247.831 433.922 248.109C434.498 248.375 434.93 248.743 435.218 249.213C435.517 249.671 435.666 250.189 435.666 250.765C435.666 251.383 435.501 251.927 435.17 252.397C434.839 252.855 434.386 253.197 433.81 253.421C434.471 253.623 434.994 253.981 435.378 254.493C435.773 254.994 435.97 255.602 435.97 256.317C435.97 257.01 435.799 257.618 435.458 258.141C435.117 258.653 434.631 259.053 434.002 259.341C433.383 259.618 432.669 259.757 431.858 259.757C431.047 259.757 430.333 259.618 429.714 259.341C429.106 259.053 428.631 258.653 428.29 258.141C427.949 257.618 427.778 257.01 427.778 256.317C427.778 255.602 427.97 254.989 428.354 254.477C428.738 253.965 429.261 253.613 429.922 253.421ZM434.258 250.941C434.258 250.29 434.045 249.789 433.618 249.437C433.191 249.085 432.605 248.909 431.858 248.909C431.122 248.909 430.541 249.085 430.114 249.437C429.687 249.789 429.474 250.295 429.474 250.957C429.474 251.554 429.693 252.034 430.13 252.397C430.578 252.759 431.154 252.941 431.858 252.941C432.573 252.941 433.149 252.759 433.586 252.397C434.034 252.023 434.258 251.538 434.258 250.941ZM431.858 254.061C431.069 254.061 430.423 254.247 429.922 254.621C429.421 254.983 429.17 255.533 429.17 256.269C429.17 256.951 429.41 257.501 429.89 257.917C430.381 258.333 431.037 258.541 431.858 258.541C432.679 258.541 433.33 258.333 433.81 257.917C434.29 257.501 434.53 256.951 434.53 256.269C434.53 255.554 434.285 255.01 433.794 254.637C433.303 254.253 432.658 254.061 431.858 254.061ZM437.904 253.533C437.904 251.698 438.202 250.269 438.8 249.245C439.397 248.21 440.442 247.693 441.936 247.693C443.418 247.693 444.458 248.21 445.056 249.245C445.653 250.269 445.952 251.698 445.952 253.533C445.952 255.399 445.653 256.85 445.056 257.885C444.458 258.919 443.418 259.437 441.936 259.437C440.442 259.437 439.397 258.919 438.8 257.885C438.202 256.85 437.904 255.399 437.904 253.533ZM444.512 253.533C444.512 252.605 444.448 251.821 444.32 251.181C444.202 250.53 443.952 250.007 443.568 249.613C443.194 249.218 442.65 249.021 441.936 249.021C441.21 249.021 440.656 249.218 440.272 249.613C439.898 250.007 439.648 250.53 439.52 251.181C439.402 251.821 439.344 252.605 439.344 253.533C439.344 254.493 439.402 255.298 439.52 255.949C439.648 256.599 439.898 257.122 440.272 257.517C440.656 257.911 441.21 258.109 441.936 258.109C442.65 258.109 443.194 257.911 443.568 257.517C443.952 257.122 444.202 256.599 444.32 255.949C444.448 255.298 444.512 254.493 444.512 253.533Z" fill="#ED5158"/>
<path d="M449.257 249.215C449.257 248.853 449.366 248.565 449.585 248.351C449.804 248.133 450.084 248.023 450.425 248.023C450.766 248.023 451.046 248.133 451.265 248.351C451.484 248.565 451.593 248.853 451.593 249.215C451.593 249.583 451.484 249.877 451.265 250.095C451.046 250.309 450.766 250.415 450.425 250.415C450.084 250.415 449.804 250.309 449.585 250.095C449.366 249.877 449.257 249.583 449.257 249.215ZM453.929 248.111L450.689 253.695H449.969L453.209 248.111H453.929ZM450.425 248.471C450.244 248.471 450.1 248.535 449.993 248.663C449.892 248.786 449.841 248.97 449.841 249.215C449.841 249.461 449.892 249.647 449.993 249.775C450.1 249.903 450.244 249.967 450.425 249.967C450.606 249.967 450.75 249.903 450.857 249.775C450.964 249.642 451.017 249.455 451.017 249.215C451.017 248.97 450.964 248.786 450.857 248.663C450.75 248.535 450.606 248.471 450.425 248.471ZM452.321 252.591C452.321 252.223 452.43 251.933 452.649 251.719C452.868 251.501 453.148 251.391 453.489 251.391C453.83 251.391 454.108 251.501 454.321 251.719C454.54 251.933 454.649 252.223 454.649 252.591C454.649 252.954 454.54 253.245 454.321 253.463C454.108 253.682 453.83 253.791 453.489 253.791C453.148 253.791 452.868 253.685 452.649 253.471C452.43 253.253 452.321 252.959 452.321 252.591ZM453.481 251.847C453.3 251.847 453.156 251.911 453.049 252.039C452.942 252.162 452.889 252.346 452.889 252.591C452.889 252.831 452.942 253.015 453.049 253.143C453.156 253.266 453.3 253.327 453.481 253.327C453.662 253.327 453.806 253.266 453.913 253.143C454.02 253.015 454.073 252.831 454.073 252.591C454.073 252.346 454.02 252.162 453.913 252.039C453.806 251.911 453.662 251.847 453.481 251.847Z" fill="#ED5158"/>
<g filter="url(#filter2_d)">
<g filter="url(#filter3_d)">
<rect x="86" y="114" width="231" height="209.576" rx="40" fill="#252836"/>
</g>
<rect x="113.122" y="280.264" width="162.261" height="5.58868" rx="2.79434" fill="#F3F4F8"/>
<rect x="113.122" y="280.264" width="76.2206" height="5.58868" rx="2.79434" fill="url(#paint36_linear)"/>
<g filter="url(#filter4_dd)">
<path fill-rule="evenodd" clip-rule="evenodd" d="M186.704 288.647C189.803 288.647 192.315 286.144 192.315 283.058C192.315 279.971 189.803 277.469 186.704 277.469C183.605 277.469 181.092 279.971 181.092 283.058C181.092 286.144 183.605 288.647 186.704 288.647Z" fill="white"/>
</g>
<path d="M186.703 287.404C189.114 287.404 191.068 285.458 191.068 283.058C191.068 280.657 189.114 278.711 186.703 278.711C184.293 278.711 182.339 280.657 182.339 283.058C182.339 285.458 184.293 287.404 186.703 287.404Z" fill="url(#paint37_linear)"/>
<path d="M188.834 281.68L185.895 284.608L184.559 283.277" stroke="white" stroke-width="0.467611" stroke-linecap="round" stroke-linejoin="round"/>
</g>
<path d="M162.442 151.433H143.53C142.562 151.433 141.656 150.955 141.113 150.158L137.007 144.147C136.463 143.352 135.56 142.875 134.593 142.875H121.526C118.296 142.875 115.681 145.48 115.681 148.697V183.626C115.681 186.842 118.296 189.447 121.526 189.447H162.442C165.671 189.447 168.287 186.842 168.287 183.626V157.254C168.287 154.041 165.671 151.433 162.442 151.433V151.433Z" stroke="url(#paint38_linear)" stroke-width="3.71964" stroke-linecap="round" stroke-linejoin="round"/>
<path d="M141.984 177.804V163.25" stroke="url(#paint39_linear)" stroke-width="3.71964" stroke-linecap="round" stroke-linejoin="round"/>
<path d="M136.49 172.332L141.984 177.804" stroke="url(#paint40_linear)" stroke-width="3.71964" stroke-linecap="round" stroke-linejoin="round"/>
<path d="M147.478 172.332L141.984 177.804" stroke="url(#paint41_linear)" stroke-width="3.71964" stroke-linecap="round" stroke-linejoin="round"/>
<path d="M121.011 210.01C121.011 210.429 120.91 210.821 120.708 211.188C120.513 211.555 120.203 211.85 119.776 212.075C119.357 212.299 118.826 212.411 118.183 212.411H116.87V215.419H115.299V207.586H118.183C118.789 207.586 119.305 207.69 119.731 207.9C120.158 208.109 120.476 208.397 120.685 208.764C120.902 209.131 121.011 209.546 121.011 210.01ZM118.115 211.143C118.549 211.143 118.871 211.046 119.081 210.851C119.29 210.649 119.395 210.369 119.395 210.01C119.395 209.246 118.968 208.865 118.115 208.865H116.87V211.143H118.115ZM125.628 209.112C126.099 209.112 126.518 209.217 126.885 209.426C127.251 209.628 127.536 209.931 127.738 210.335C127.947 210.732 128.052 211.21 128.052 211.772V215.419H126.481V211.985C126.481 211.491 126.357 211.113 126.11 210.851C125.864 210.582 125.527 210.447 125.1 210.447C124.666 210.447 124.322 210.582 124.068 210.851C123.821 211.113 123.698 211.491 123.698 211.985V215.419H122.126V207.114H123.698V209.976C123.9 209.707 124.169 209.497 124.506 209.347C124.842 209.19 125.216 209.112 125.628 209.112ZM132.307 215.52C131.708 215.52 131.17 215.389 130.691 215.127C130.212 214.858 129.834 214.48 129.557 213.994C129.288 213.507 129.153 212.946 129.153 212.31C129.153 211.674 129.292 211.113 129.569 210.627C129.853 210.141 130.238 209.766 130.724 209.505C131.211 209.235 131.753 209.101 132.352 209.101C132.95 209.101 133.493 209.235 133.979 209.505C134.465 209.766 134.847 210.141 135.124 210.627C135.408 211.113 135.55 211.674 135.55 212.31C135.55 212.946 135.404 213.507 135.113 213.994C134.828 214.48 134.439 214.858 133.945 215.127C133.459 215.389 132.913 215.52 132.307 215.52ZM132.307 214.151C132.591 214.151 132.857 214.083 133.104 213.949C133.358 213.807 133.56 213.597 133.71 213.32C133.859 213.043 133.934 212.707 133.934 212.31C133.934 211.719 133.777 211.267 133.463 210.952C133.156 210.631 132.778 210.47 132.329 210.47C131.88 210.47 131.503 210.631 131.196 210.952C130.897 211.267 130.747 211.719 130.747 212.31C130.747 212.901 130.893 213.358 131.185 213.679C131.484 213.994 131.858 214.151 132.307 214.151ZM138.532 210.492V213.5C138.532 213.709 138.581 213.863 138.678 213.96C138.783 214.05 138.955 214.095 139.194 214.095H139.924V215.419H138.936C137.612 215.419 136.95 214.776 136.95 213.489V210.492H136.209V209.202H136.95V207.664H138.532V209.202H139.924V210.492H138.532ZM143.814 215.52C143.216 215.52 142.677 215.389 142.198 215.127C141.72 214.858 141.342 214.48 141.065 213.994C140.796 213.507 140.661 212.946 140.661 212.31C140.661 211.674 140.799 211.113 141.076 210.627C141.36 210.141 141.746 209.766 142.232 209.505C142.718 209.235 143.261 209.101 143.859 209.101C144.458 209.101 145 209.235 145.487 209.505C145.973 209.766 146.355 210.141 146.631 210.627C146.916 211.113 147.058 211.674 147.058 212.31C147.058 212.946 146.912 213.507 146.62 213.994C146.336 214.48 145.947 214.858 145.453 215.127C144.967 215.389 144.42 215.52 143.814 215.52ZM143.814 214.151C144.099 214.151 144.364 214.083 144.611 213.949C144.866 213.807 145.068 213.597 145.217 213.32C145.367 213.043 145.442 212.707 145.442 212.31C145.442 211.719 145.285 211.267 144.97 210.952C144.664 210.631 144.286 210.47 143.837 210.47C143.388 210.47 143.01 210.631 142.703 210.952C142.404 211.267 142.255 211.719 142.255 212.31C142.255 212.901 142.4 213.358 142.692 213.679C142.991 213.994 143.366 214.151 143.814 214.151ZM150.59 215.52C150.081 215.52 149.624 215.43 149.22 215.251C148.816 215.064 148.495 214.813 148.255 214.499C148.023 214.184 147.896 213.837 147.874 213.455H149.456C149.486 213.694 149.602 213.893 149.804 214.05C150.013 214.207 150.272 214.285 150.578 214.285C150.878 214.285 151.11 214.226 151.274 214.106C151.446 213.986 151.532 213.833 151.532 213.646C151.532 213.444 151.427 213.294 151.218 213.197C151.016 213.092 150.691 212.98 150.242 212.86C149.778 212.748 149.396 212.632 149.097 212.512C148.805 212.393 148.551 212.209 148.334 211.962C148.124 211.715 148.02 211.383 148.02 210.964C148.02 210.619 148.117 210.305 148.311 210.021C148.513 209.737 148.798 209.512 149.164 209.347C149.538 209.183 149.976 209.101 150.477 209.101C151.218 209.101 151.809 209.288 152.25 209.662C152.692 210.028 152.935 210.526 152.98 211.154H151.476C151.454 210.907 151.349 210.713 151.162 210.571C150.982 210.421 150.739 210.346 150.432 210.346C150.148 210.346 149.927 210.399 149.77 210.503C149.621 210.608 149.546 210.754 149.546 210.941C149.546 211.151 149.651 211.311 149.86 211.424C150.07 211.528 150.395 211.637 150.836 211.749C151.285 211.861 151.656 211.977 151.947 212.097C152.239 212.217 152.49 212.404 152.699 212.658C152.916 212.905 153.029 213.234 153.036 213.646C153.036 214.005 152.935 214.327 152.733 214.611C152.539 214.895 152.254 215.12 151.88 215.284C151.514 215.441 151.083 215.52 150.59 215.52Z" fill="#F3F4F8"/>
<ellipse cx="287.063" cy="144.728" rx="1.8609" ry="1.85339" fill="#F3F4F8"/>
<ellipse cx="287.063" cy="149.861" rx="1.8609" ry="1.85339" fill="#F3F4F8"/>
<ellipse cx="287.063" cy="154.994" rx="1.8609" ry="1.85339" fill="#F3F4F8"/>
<path d="M114.844 231.716V231.017H116.426V237.103H115.652V231.716H114.844ZM118.66 236.042L117.717 238.306H117.203L117.818 236.042H118.66ZM119.318 236.488C120.031 235.916 120.589 235.447 120.993 235.082C121.397 234.712 121.737 234.328 122.012 233.929C122.292 233.525 122.432 233.13 122.432 232.743C122.432 232.378 122.343 232.092 122.163 231.884C121.989 231.671 121.706 231.564 121.313 231.564C120.931 231.564 120.634 231.685 120.421 231.926C120.213 232.162 120.101 232.479 120.084 232.877H119.343C119.366 232.249 119.557 231.763 119.916 231.421C120.275 231.079 120.738 230.908 121.305 230.908C121.882 230.908 122.34 231.068 122.676 231.387C123.019 231.707 123.19 232.148 123.19 232.709C123.19 233.175 123.05 233.629 122.769 234.072C122.494 234.51 122.18 234.897 121.826 235.234C121.473 235.565 121.021 235.952 120.471 236.396H123.367V237.035H119.318V236.488ZM128.132 231.682H125.178V233.601C125.307 233.422 125.498 233.276 125.75 233.163C126.003 233.046 126.275 232.987 126.567 232.987C127.033 232.987 127.411 233.085 127.703 233.281C127.995 233.472 128.203 233.722 128.326 234.03C128.455 234.333 128.52 234.656 128.52 234.998C128.52 235.402 128.444 235.764 128.292 236.084C128.141 236.404 127.908 236.656 127.594 236.842C127.285 237.027 126.901 237.119 126.441 237.119C125.851 237.119 125.374 236.968 125.01 236.665C124.645 236.362 124.423 235.958 124.345 235.453H125.094C125.167 235.773 125.321 236.022 125.557 236.202C125.792 236.381 126.09 236.471 126.449 236.471C126.892 236.471 127.226 236.339 127.451 236.076C127.675 235.806 127.787 235.453 127.787 235.015C127.787 234.577 127.675 234.241 127.451 234.005C127.226 233.764 126.895 233.643 126.457 233.643C126.16 233.643 125.899 233.716 125.675 233.862C125.456 234.002 125.296 234.196 125.195 234.443H124.471V231.009H128.132V231.682ZM129.537 233.997C129.537 233.032 129.695 232.28 130.009 231.741C130.323 231.197 130.873 230.924 131.658 230.924C132.438 230.924 132.986 231.197 133.3 231.741C133.614 232.28 133.771 233.032 133.771 233.997C133.771 234.979 133.614 235.742 133.3 236.286C132.986 236.83 132.438 237.103 131.658 237.103C130.873 237.103 130.323 236.83 130.009 236.286C129.695 235.742 129.537 234.979 129.537 233.997ZM133.014 233.997C133.014 233.508 132.98 233.096 132.913 232.759C132.851 232.417 132.719 232.142 132.517 231.934C132.321 231.727 132.034 231.623 131.658 231.623C131.277 231.623 130.985 231.727 130.783 231.934C130.587 232.142 130.455 232.417 130.388 232.759C130.326 233.096 130.295 233.508 130.295 233.997C130.295 234.502 130.326 234.925 130.388 235.268C130.455 235.61 130.587 235.885 130.783 236.092C130.985 236.3 131.277 236.404 131.658 236.404C132.034 236.404 132.321 236.3 132.517 236.092C132.719 235.885 132.851 235.61 132.913 235.268C132.98 234.925 133.014 234.502 133.014 233.997ZM139.07 233.121H138.102V237.103H137.336V233.121H136.738V232.49H137.336V232.162C137.336 231.646 137.468 231.27 137.732 231.034C138.001 230.793 138.43 230.672 139.019 230.672V231.312C138.683 231.312 138.444 231.379 138.304 231.514C138.169 231.643 138.102 231.859 138.102 232.162V232.49H139.07V233.121ZM140.359 231.741C140.213 231.741 140.089 231.69 139.988 231.589C139.887 231.488 139.837 231.365 139.837 231.219C139.837 231.073 139.887 230.95 139.988 230.849C140.089 230.748 140.213 230.697 140.359 230.697C140.499 230.697 140.617 230.748 140.712 230.849C140.813 230.95 140.864 231.073 140.864 231.219C140.864 231.365 140.813 231.488 140.712 231.589C140.617 231.69 140.499 231.741 140.359 231.741ZM140.729 232.49V237.103H139.963V232.49H140.729ZM142.8 230.874V237.103H142.034V230.874H142.8ZM148.314 234.62C148.314 234.765 148.306 234.92 148.289 235.082H144.602C144.63 235.537 144.785 235.893 145.065 236.151C145.351 236.404 145.697 236.53 146.101 236.53C146.432 236.53 146.707 236.454 146.925 236.303C147.15 236.146 147.307 235.938 147.397 235.68H148.222C148.098 236.123 147.851 236.485 147.481 236.766C147.111 237.041 146.65 237.178 146.101 237.178C145.663 237.178 145.27 237.08 144.922 236.884C144.58 236.687 144.311 236.41 144.114 236.05C143.918 235.686 143.82 235.265 143.82 234.788C143.82 234.311 143.915 233.893 144.106 233.534C144.297 233.175 144.563 232.9 144.905 232.709C145.253 232.512 145.652 232.414 146.101 232.414C146.538 232.414 146.925 232.51 147.262 232.7C147.599 232.891 147.857 233.155 148.036 233.492C148.222 233.823 148.314 234.199 148.314 234.62ZM147.523 234.46C147.523 234.168 147.459 233.918 147.329 233.71C147.2 233.497 147.024 233.337 146.799 233.231C146.58 233.118 146.336 233.062 146.067 233.062C145.68 233.062 145.349 233.186 145.074 233.433C144.804 233.68 144.65 234.022 144.611 234.46H147.523ZM150.958 237.178C150.605 237.178 150.288 237.119 150.007 237.002C149.726 236.878 149.505 236.71 149.342 236.497C149.179 236.278 149.09 236.028 149.073 235.747H149.864C149.886 235.977 149.993 236.165 150.184 236.311C150.38 236.457 150.636 236.53 150.95 236.53C151.242 236.53 151.472 236.466 151.64 236.337C151.808 236.208 151.892 236.045 151.892 235.848C151.892 235.646 151.803 235.498 151.623 235.402C151.444 235.301 151.166 235.203 150.79 235.108C150.448 235.018 150.167 234.928 149.948 234.838C149.735 234.743 149.55 234.605 149.393 234.426C149.241 234.241 149.165 233.999 149.165 233.702C149.165 233.466 149.235 233.25 149.376 233.054C149.516 232.858 149.715 232.703 149.973 232.591C150.231 232.473 150.526 232.414 150.857 232.414C151.368 232.414 151.78 232.543 152.094 232.801C152.409 233.06 152.577 233.413 152.599 233.862H151.834C151.817 233.621 151.718 233.427 151.539 233.281C151.365 233.135 151.129 233.062 150.832 233.062C150.557 233.062 150.338 233.121 150.175 233.239C150.013 233.357 149.931 233.511 149.931 233.702C149.931 233.854 149.979 233.98 150.074 234.081C150.175 234.176 150.299 234.255 150.445 234.317C150.596 234.373 150.804 234.437 151.068 234.51C151.399 234.6 151.668 234.69 151.876 234.779C152.083 234.864 152.26 234.993 152.406 235.167C152.557 235.341 152.636 235.568 152.642 235.848C152.642 236.101 152.571 236.328 152.431 236.53C152.291 236.732 152.092 236.892 151.834 237.01C151.581 237.122 151.289 237.178 150.958 237.178Z" fill="#B1B1B5"/>
<path d="M250.378 232.909L247.259 240.103H245.968L249.122 233.043H244.969V231.955H250.378V232.909ZM256.748 233.021H252.989V235.254C253.146 235.045 253.378 234.869 253.684 234.727C253.999 234.585 254.332 234.514 254.683 234.514C255.312 234.514 255.82 234.648 256.209 234.918C256.606 235.187 256.887 235.527 257.051 235.939C257.223 236.35 257.309 236.784 257.309 237.241C257.309 237.794 257.201 238.288 256.984 238.722C256.774 239.149 256.456 239.485 256.03 239.732C255.611 239.979 255.095 240.103 254.481 240.103C253.666 240.103 253.011 239.901 252.517 239.497C252.023 239.092 251.728 238.558 251.631 237.892H252.876C252.959 238.243 253.142 238.524 253.426 238.733C253.711 238.935 254.066 239.036 254.492 239.036C255.024 239.036 255.42 238.876 255.682 238.554C255.951 238.232 256.086 237.806 256.086 237.274C256.086 236.736 255.951 236.324 255.682 236.04C255.413 235.748 255.016 235.602 254.492 235.602C254.126 235.602 253.815 235.696 253.561 235.883C253.314 236.062 253.134 236.309 253.022 236.624H251.81V231.899H256.748V233.021ZM258.641 235.905C258.641 234.611 258.858 233.601 259.292 232.875C259.733 232.142 260.489 231.775 261.559 231.775C262.629 231.775 263.381 232.142 263.815 232.875C264.256 233.601 264.477 234.611 264.477 235.905C264.477 237.215 264.256 238.24 263.815 238.98C263.381 239.713 262.629 240.08 261.559 240.08C260.489 240.08 259.733 239.713 259.292 238.98C258.858 238.24 258.641 237.215 258.641 235.905ZM263.22 235.905C263.22 235.299 263.179 234.787 263.097 234.368C263.022 233.949 262.865 233.608 262.625 233.346C262.386 233.077 262.03 232.942 261.559 232.942C261.088 232.942 260.732 233.077 260.493 233.346C260.253 233.608 260.093 233.949 260.01 234.368C259.935 234.787 259.898 235.299 259.898 235.905C259.898 236.534 259.935 237.061 260.01 237.488C260.085 237.914 260.242 238.258 260.482 238.52C260.729 238.782 261.088 238.913 261.559 238.913C262.03 238.913 262.386 238.782 262.625 238.52C262.872 238.258 263.033 237.914 263.108 237.488C263.183 237.061 263.22 236.534 263.22 235.905ZM277.129 232.303V240.103H275.85V234.761L273.471 240.103H272.584L270.194 234.761V240.103H268.914V232.303H270.295L273.033 238.419L275.76 232.303H277.129ZM282.986 236.096C283.405 236.171 283.76 236.392 284.052 236.758C284.344 237.125 284.489 237.54 284.489 238.004C284.489 238.4 284.385 238.76 284.175 239.081C283.973 239.396 283.678 239.646 283.289 239.833C282.9 240.013 282.447 240.103 281.931 240.103H278.811V232.303H281.785C282.316 232.303 282.772 232.393 283.154 232.572C283.536 232.752 283.824 232.995 284.018 233.302C284.213 233.601 284.31 233.938 284.31 234.312C284.31 234.761 284.19 235.135 283.951 235.434C283.711 235.733 283.39 235.954 282.986 236.096ZM280.09 235.58H281.673C282.092 235.58 282.417 235.486 282.649 235.299C282.888 235.105 283.008 234.828 283.008 234.469C283.008 234.117 282.888 233.844 282.649 233.65C282.417 233.447 282.092 233.346 281.673 233.346H280.09V235.58ZM281.818 239.059C282.252 239.059 282.593 238.954 282.84 238.745C283.087 238.535 283.21 238.243 283.21 237.869C283.21 237.488 283.079 237.185 282.817 236.96C282.555 236.736 282.208 236.624 281.774 236.624H280.09V239.059H281.818Z" fill="#00D764"/>
<path d="M244.95 259.308C245.662 258.736 246.22 258.268 246.625 257.903C247.029 257.532 247.368 257.148 247.643 256.75C247.924 256.346 248.064 255.95 248.064 255.563C248.064 255.198 247.974 254.912 247.794 254.704C247.621 254.491 247.337 254.384 246.944 254.384C246.563 254.384 246.265 254.505 246.052 254.746C245.845 254.982 245.732 255.299 245.715 255.698H244.975C244.997 255.069 245.188 254.584 245.547 254.241C245.906 253.899 246.369 253.728 246.936 253.728C247.514 253.728 247.971 253.888 248.308 254.208C248.65 254.528 248.821 254.968 248.821 255.529C248.821 255.995 248.681 256.449 248.401 256.893C248.126 257.33 247.811 257.718 247.458 258.054C247.104 258.385 246.653 258.773 246.103 259.216H248.998V259.856H244.95V259.308ZM251.968 257.6C251.968 257.128 252.063 256.716 252.254 256.362C252.445 256.003 252.705 255.726 253.037 255.529C253.373 255.333 253.749 255.235 254.164 255.235C254.524 255.235 254.857 255.319 255.166 255.487C255.475 255.65 255.71 255.866 255.873 256.135V253.694H256.647V259.923H255.873V259.056C255.722 259.331 255.497 259.558 255.2 259.738C254.902 259.912 254.554 259.999 254.156 259.999C253.746 259.999 253.373 259.898 253.037 259.696C252.705 259.494 252.445 259.21 252.254 258.845C252.063 258.481 251.968 258.065 251.968 257.6ZM255.873 257.608C255.873 257.26 255.803 256.957 255.663 256.699C255.522 256.441 255.332 256.245 255.09 256.11C254.855 255.97 254.594 255.9 254.308 255.9C254.021 255.9 253.76 255.967 253.525 256.102C253.289 256.236 253.101 256.433 252.961 256.691C252.821 256.949 252.75 257.252 252.75 257.6C252.75 257.953 252.821 258.262 252.961 258.526C253.101 258.784 253.289 258.983 253.525 259.123C253.76 259.258 254.021 259.325 254.308 259.325C254.594 259.325 254.855 259.258 255.09 259.123C255.332 258.983 255.522 258.784 255.663 258.526C255.803 258.262 255.873 257.956 255.873 257.608ZM257.656 257.6C257.656 257.128 257.751 256.716 257.942 256.362C258.133 256.003 258.394 255.726 258.725 255.529C259.061 255.333 259.434 255.235 259.844 255.235C260.248 255.235 260.599 255.322 260.896 255.496C261.194 255.669 261.415 255.888 261.561 256.152V255.31H262.336V259.923H261.561V259.064C261.41 259.334 261.182 259.558 260.879 259.738C260.582 259.912 260.234 259.999 259.836 259.999C259.426 259.999 259.056 259.898 258.725 259.696C258.394 259.494 258.133 259.21 257.942 258.845C257.751 258.481 257.656 258.065 257.656 257.6ZM261.561 257.608C261.561 257.26 261.491 256.957 261.351 256.699C261.21 256.441 261.02 256.245 260.778 256.11C260.543 255.97 260.282 255.9 259.996 255.9C259.709 255.9 259.448 255.967 259.213 256.102C258.977 256.236 258.789 256.433 258.649 256.691C258.509 256.949 258.438 257.252 258.438 257.6C258.438 257.953 258.509 258.262 258.649 258.526C258.789 258.784 258.977 258.983 259.213 259.123C259.448 259.258 259.709 259.325 259.996 259.325C260.282 259.325 260.543 259.258 260.778 259.123C261.02 258.983 261.21 258.784 261.351 258.526C261.491 258.262 261.561 257.956 261.561 257.608ZM267.603 255.31L264.825 262.094H264.034L264.943 259.872L263.083 255.31H263.933L265.381 259.047L266.812 255.31H267.603ZM270.006 259.999C269.652 259.999 269.335 259.94 269.054 259.822C268.774 259.698 268.552 259.53 268.39 259.317C268.227 259.098 268.137 258.848 268.12 258.568H268.911C268.934 258.798 269.04 258.986 269.231 259.132C269.428 259.278 269.683 259.35 269.997 259.35C270.289 259.35 270.519 259.286 270.687 259.157C270.856 259.028 270.94 258.865 270.94 258.669C270.94 258.467 270.85 258.318 270.671 258.223C270.491 258.122 270.213 258.023 269.837 257.928C269.495 257.838 269.214 257.748 268.996 257.659C268.782 257.563 268.597 257.426 268.44 257.246C268.289 257.061 268.213 256.82 268.213 256.522C268.213 256.287 268.283 256.071 268.423 255.874C268.563 255.678 268.763 255.524 269.021 255.411C269.279 255.293 269.573 255.235 269.905 255.235C270.415 255.235 270.828 255.364 271.142 255.622C271.456 255.88 271.624 256.233 271.647 256.682H270.881C270.864 256.441 270.766 256.247 270.586 256.102C270.412 255.956 270.177 255.883 269.879 255.883C269.604 255.883 269.386 255.942 269.223 256.059C269.06 256.177 268.979 256.332 268.979 256.522C268.979 256.674 269.026 256.8 269.122 256.901C269.223 256.997 269.346 257.075 269.492 257.137C269.644 257.193 269.851 257.257 270.115 257.33C270.446 257.42 270.715 257.51 270.923 257.6C271.131 257.684 271.307 257.813 271.453 257.987C271.605 258.161 271.683 258.388 271.689 258.669C271.689 258.921 271.619 259.148 271.479 259.35C271.338 259.553 271.139 259.712 270.881 259.83C270.628 259.942 270.337 259.999 270.006 259.999ZM274.728 257.6C274.728 257.128 274.823 256.716 275.014 256.362C275.205 256.003 275.466 255.726 275.797 255.529C276.134 255.333 276.507 255.235 276.916 255.235C277.32 255.235 277.671 255.322 277.969 255.496C278.266 255.669 278.488 255.888 278.634 256.152V255.31H279.408V259.923H278.634V259.064C278.482 259.334 278.255 259.558 277.952 259.738C277.654 259.912 277.306 259.999 276.908 259.999C276.498 259.999 276.128 259.898 275.797 259.696C275.466 259.494 275.205 259.21 275.014 258.845C274.823 258.481 274.728 258.065 274.728 257.6ZM278.634 257.608C278.634 257.26 278.563 256.957 278.423 256.699C278.283 256.441 278.092 256.245 277.851 256.11C277.615 255.97 277.354 255.9 277.068 255.9C276.782 255.9 276.521 255.967 276.285 256.102C276.05 256.236 275.862 256.433 275.721 256.691C275.581 256.949 275.511 257.252 275.511 257.6C275.511 257.953 275.581 258.262 275.721 258.526C275.862 258.784 276.05 258.983 276.285 259.123C276.521 259.258 276.782 259.325 277.068 259.325C277.354 259.325 277.615 259.258 277.851 259.123C278.092 258.983 278.283 258.784 278.423 258.526C278.563 258.262 278.634 257.956 278.634 257.608ZM282.605 255.235C283.003 255.235 283.351 255.322 283.648 255.496C283.951 255.669 284.176 255.888 284.322 256.152V255.31H285.096V260.024C285.096 260.445 285.006 260.818 284.827 261.143C284.647 261.474 284.389 261.733 284.052 261.918C283.721 262.103 283.334 262.195 282.891 262.195C282.285 262.195 281.78 262.052 281.376 261.766C280.972 261.48 280.733 261.09 280.66 260.596H281.418C281.502 260.877 281.676 261.101 281.94 261.27C282.203 261.444 282.52 261.53 282.891 261.53C283.312 261.53 283.654 261.399 283.918 261.135C284.187 260.871 284.322 260.501 284.322 260.024V259.056C284.17 259.325 283.946 259.55 283.648 259.729C283.351 259.909 283.003 259.999 282.605 259.999C282.195 259.999 281.822 259.898 281.485 259.696C281.154 259.494 280.893 259.21 280.702 258.845C280.511 258.481 280.416 258.065 280.416 257.6C280.416 257.128 280.511 256.716 280.702 256.362C280.893 256.003 281.154 255.726 281.485 255.529C281.822 255.333 282.195 255.235 282.605 255.235ZM284.322 257.608C284.322 257.26 284.251 256.957 284.111 256.699C283.971 256.441 283.78 256.245 283.539 256.11C283.303 255.97 283.042 255.9 282.756 255.9C282.47 255.9 282.209 255.967 281.973 256.102C281.738 256.236 281.55 256.433 281.409 256.691C281.269 256.949 281.199 257.252 281.199 257.6C281.199 257.953 281.269 258.262 281.409 258.526C281.55 258.784 281.738 258.983 281.973 259.123C282.209 259.258 282.47 259.325 282.756 259.325C283.042 259.325 283.303 259.258 283.539 259.123C283.78 258.983 283.971 258.784 284.111 258.526C284.251 258.262 284.322 257.956 284.322 257.608ZM288.402 259.999C287.97 259.999 287.577 259.9 287.224 259.704C286.876 259.508 286.601 259.23 286.399 258.871C286.202 258.506 286.104 258.085 286.104 257.608C286.104 257.137 286.205 256.722 286.407 256.362C286.615 255.998 286.895 255.72 287.249 255.529C287.602 255.333 287.998 255.235 288.436 255.235C288.873 255.235 289.269 255.333 289.622 255.529C289.976 255.72 290.254 255.995 290.456 256.354C290.663 256.713 290.767 257.131 290.767 257.608C290.767 258.085 290.661 258.506 290.447 258.871C290.24 259.23 289.956 259.508 289.597 259.704C289.238 259.9 288.84 259.999 288.402 259.999ZM288.402 259.325C288.677 259.325 288.935 259.261 289.176 259.132C289.418 259.003 289.611 258.809 289.757 258.551C289.909 258.293 289.984 257.979 289.984 257.608C289.984 257.238 289.911 256.924 289.766 256.665C289.62 256.407 289.429 256.217 289.193 256.093C288.958 255.964 288.702 255.9 288.427 255.9C288.147 255.9 287.889 255.964 287.653 256.093C287.423 256.217 287.238 256.407 287.097 256.665C286.957 256.924 286.887 257.238 286.887 257.608C286.887 257.984 286.954 258.301 287.089 258.559C287.229 258.817 287.414 259.011 287.644 259.14C287.875 259.264 288.127 259.325 288.402 259.325Z" fill="#F3F4F8"/>
<path d="M115.04 258.888V257.923L118.811 252.514H120.36V257.777H121.404V258.888H120.36V260.594H119.103V258.888H115.04ZM119.159 253.816L116.511 257.777H119.159V253.816ZM122.464 256.397C122.464 255.103 122.681 254.093 123.115 253.367C123.556 252.634 124.312 252.267 125.382 252.267C126.452 252.267 127.203 252.634 127.637 253.367C128.079 254.093 128.3 255.103 128.3 256.397C128.3 257.706 128.079 258.731 127.637 259.472C127.203 260.205 126.452 260.572 125.382 260.572C124.312 260.572 123.556 260.205 123.115 259.472C122.681 258.731 122.464 257.706 122.464 256.397ZM127.043 256.397C127.043 255.791 127.001 255.278 126.919 254.859C126.844 254.44 126.687 254.1 126.448 253.838C126.208 253.569 125.853 253.434 125.382 253.434C124.91 253.434 124.555 253.569 124.316 253.838C124.076 254.1 123.915 254.44 123.833 254.859C123.758 255.278 123.721 255.791 123.721 256.397C123.721 257.025 123.758 257.553 123.833 257.979C123.908 258.406 124.065 258.75 124.304 259.012C124.551 259.274 124.91 259.405 125.382 259.405C125.853 259.405 126.208 259.274 126.448 259.012C126.695 258.75 126.856 258.406 126.93 257.979C127.005 257.553 127.043 257.025 127.043 256.397ZM129.451 254.388C129.451 253.842 129.608 253.415 129.923 253.109C130.244 252.794 130.656 252.637 131.157 252.637C131.658 252.637 132.066 252.794 132.38 253.109C132.702 253.415 132.863 253.842 132.863 254.388C132.863 254.934 132.702 255.364 132.38 255.679C132.066 255.993 131.658 256.15 131.157 256.15C130.656 256.15 130.244 255.993 129.923 255.679C129.608 255.364 129.451 254.934 129.451 254.388ZM136.297 252.783L131.819 260.594H130.562L135.04 252.783H136.297ZM131.157 253.412C130.686 253.412 130.45 253.737 130.45 254.388C130.45 255.046 130.686 255.376 131.157 255.376C131.382 255.376 131.554 255.297 131.673 255.14C131.801 254.975 131.864 254.725 131.864 254.388C131.864 253.737 131.628 253.412 131.157 253.412ZM134.019 258.978C134.019 258.432 134.176 258.006 134.49 257.699C134.812 257.385 135.223 257.227 135.725 257.227C136.219 257.227 136.623 257.385 136.937 257.699C137.259 258.006 137.419 258.432 137.419 258.978C137.419 259.524 137.259 259.955 136.937 260.269C136.623 260.583 136.219 260.74 135.725 260.74C135.223 260.74 134.812 260.583 134.49 260.269C134.176 259.955 134.019 259.524 134.019 258.978ZM135.714 258.002C135.242 258.002 135.007 258.327 135.007 258.978C135.007 259.629 135.242 259.955 135.714 259.955C136.185 259.955 136.421 259.629 136.421 258.978C136.421 258.327 136.185 258.002 135.714 258.002Z" fill="#F3F4F8"/>
<circle cx="374" cy="42" r="42" fill="#252836"/>
<rect x="367.638" y="40.2476" width="8.45716" height="9.39684" rx="2.34921" fill="#FFA561"/>
<rect x="367.638" y="51.7588" width="8.45716" height="9.39684" rx="2.34921" fill="#00D764"/>
<rect x="362" y="23.333" width="14.0953" height="14.8" rx="2.34921" fill="#5A82F6"/>
<rect x="378.21" y="28.7363" width="8.45716" height="9.39684" rx="2.34921" fill="#FFA561"/>
<rect x="378.21" y="40.2476" width="8.45716" height="9.39684" rx="2.34921" fill="#5A82F6"/>
<defs>
<filter id="filter0_d" x="339.13" y="165.753" width="200.741" height="184.684" filterUnits="userSpaceOnUse" color-interpolation-filters="sRGB">
<feFlood flood-opacity="0" result="BackgroundImageFix"/>
<feColorMatrix in="SourceAlpha" type="matrix" values="0 0 0 0 0 0 0 0 0 0 0 0 0 0 0 0 0 0 127 0"/>
<feOffset dy="3.62348"/>
<feGaussianBlur stdDeviation="5.43522"/>
<feColorMatrix type="matrix" values="0 0 0 0 0 0 0 0 0 0 0 0 0 0 0 0 0 0 0.2 0"/>
<feBlend mode="normal" in2="BackgroundImageFix" result="effect1_dropShadow"/>
<feBlend mode="normal" in="SourceGraphic" in2="effect1_dropShadow" result="shape"/>
</filter>
<filter id="filter1_d" x="392.757" y="210.655" width="93.1235" height="93.0688" filterUnits="userSpaceOnUse" color-interpolation-filters="sRGB">
<feFlood flood-opacity="0" result="BackgroundImageFix"/>
<feColorMatrix in="SourceAlpha" type="matrix" values="0 0 0 0 0 0 0 0 0 0 0 0 0 0 0 0 0 0 127 0"/>
<feOffset dy="2.89879"/>
<feGaussianBlur stdDeviation="3.62348"/>
<feColorMatrix type="matrix" values="0 0 0 0 0.147222 0 0 0 0 0.147222 0 0 0 0 0.147222 0 0 0 0.2 0"/>
<feBlend mode="normal" in2="BackgroundImageFix" result="effect1_dropShadow"/>
<feBlend mode="normal" in="SourceGraphic" in2="effect1_dropShadow" result="shape"/>
</filter>
<filter id="filter2_d" x="55.0551" y="90.7914" width="292.89" height="271.465" filterUnits="userSpaceOnUse" color-interpolation-filters="sRGB">
<feFlood flood-opacity="0" result="BackgroundImageFix"/>
<feColorMatrix in="SourceAlpha" type="matrix" values="0 0 0 0 0 0 0 0 0 0 0 0 0 0 0 0 0 0 127 0"/>
<feOffset dy="7.73622"/>
<feGaussianBlur stdDeviation="15.4724"/>
<feColorMatrix type="matrix" values="0 0 0 0 0.121569 0 0 0 0 0.113725 0 0 0 0 0.168627 0 0 0 0.3 0"/>
<feBlend mode="normal" in2="BackgroundImageFix" result="effect1_dropShadow"/>
<feBlend mode="normal" in="SourceGraphic" in2="effect1_dropShadow" result="shape"/>
</filter>
<filter id="filter3_d" x="56" y="94" width="291" height="269.576" filterUnits="userSpaceOnUse" color-interpolation-filters="sRGB">
<feFlood flood-opacity="0" result="BackgroundImageFix"/>
<feColorMatrix in="SourceAlpha" type="matrix" values="0 0 0 0 0 0 0 0 0 0 0 0 0 0 0 0 0 0 127 0"/>
<feOffset dy="10"/>
<feGaussianBlur stdDeviation="15"/>
<feColorMatrix type="matrix" values="0 0 0 0 0 0 0 0 0 0 0 0 0 0 0 0 0 0 0.2 0"/>
<feBlend mode="normal" in2="BackgroundImageFix" result="effect1_dropShadow"/>
<feBlend mode="normal" in="SourceGraphic" in2="effect1_dropShadow" result="shape"/>
</filter>
<filter id="filter4_dd" x="179.222" y="276.534" width="14.9636" height="14.9183" filterUnits="userSpaceOnUse" color-interpolation-filters="sRGB">
<feFlood flood-opacity="0" result="BackgroundImageFix"/>
<feColorMatrix in="SourceAlpha" type="matrix" values="0 0 0 0 0 0 0 0 0 0 0 0 0 0 0 0 0 0 127 0"/>
<feOffset dy="0.935223"/>
<feGaussianBlur stdDeviation="0.935223"/>
<feColorMatrix type="matrix" values="0 0 0 0 0.196487 0 0 0 0 0.196487 0 0 0 0 0.279476 0 0 0 0.06 0"/>
<feBlend mode="multiply" in2="BackgroundImageFix" result="effect1_dropShadow"/>
<feColorMatrix in="SourceAlpha" type="matrix" values="0 0 0 0 0 0 0 0 0 0 0 0 0 0 0 0 0 0 127 0"/>
<feOffset dy="0.935223"/>
<feGaussianBlur stdDeviation="0.467611"/>
<feColorMatrix type="matrix" values="0 0 0 0 0.196487 0 0 0 0 0.196487 0 0 0 0 0.279476 0 0 0 0.06 0"/>
<feBlend mode="multiply" in2="effect1_dropShadow" result="effect2_dropShadow"/>
<feBlend mode="normal" in="SourceGraphic" in2="effect2_dropShadow" result="shape"/>
</filter>
<linearGradient id="paint0_linear" x1="55" y1="220" x2="55" y2="234" gradientUnits="userSpaceOnUse">
<stop stop-color="#00D764"/>
<stop offset="1" stop-color="#2698EA"/>
</linearGradient>
<linearGradient id="paint1_linear" x1="221.054" y1="70.521" x2="221.054" y2="219.058" gradientUnits="userSpaceOnUse">
<stop stop-color="#00D764"/>
<stop offset="1" stop-color="#2698EA"/>
</linearGradient>
<linearGradient id="paint2_linear" x1="150.354" y1="63.9326" x2="150.354" y2="73.3936" gradientUnits="userSpaceOnUse">
<stop stop-color="#00D764"/>
<stop offset="1" stop-color="#2698EA"/>
</linearGradient>
<linearGradient id="paint3_linear" x1="65.157" y1="185.606" x2="65.157" y2="195.067" gradientUnits="userSpaceOnUse">
<stop stop-color="#00D764"/>
<stop offset="1" stop-color="#2698EA"/>
</linearGradient>
<linearGradient id="paint4_linear" x1="186.831" y1="270.804" x2="186.831" y2="280.265" gradientUnits="userSpaceOnUse">
<stop stop-color="#00D764"/>
<stop offset="1" stop-color="#2698EA"/>
</linearGradient>
<linearGradient id="paint5_linear" x1="272.029" y1="149.129" x2="272.029" y2="158.59" gradientUnits="userSpaceOnUse">
<stop stop-color="#00D764"/>
<stop offset="1" stop-color="#2698EA"/>
</linearGradient>
<linearGradient id="paint6_linear" x1="185.718" y1="257.882" x2="342.593" y2="261.547" gradientUnits="userSpaceOnUse">
<stop offset="0.11632" stop-color="#2698EA"/>
<stop offset="0.527778" stop-color="#FFB176"/>
<stop offset="0.983091" stop-color="#ED5158"/>
</linearGradient>
<linearGradient id="paint7_linear" x1="259.986" y1="292.541" x2="259.986" y2="441.077" gradientUnits="userSpaceOnUse">
<stop stop-color="#5A82F6"/>
<stop offset="1" stop-color="white" stop-opacity="0"/>
</linearGradient>
<linearGradient id="paint8_linear" x1="184.556" y1="283.745" x2="194.548" y2="283.978" gradientUnits="userSpaceOnUse">
<stop offset="0.11632" stop-color="#2698EA"/>
<stop offset="0.527778" stop-color="#FFB176"/>
<stop offset="0.983091" stop-color="#ED5158"/>
</linearGradient>
<linearGradient id="paint9_linear" x1="189.287" y1="285.952" x2="189.287" y2="295.413" gradientUnits="userSpaceOnUse">
<stop stop-color="#5A82F6"/>
<stop offset="1" stop-color="white" stop-opacity="0"/>
</linearGradient>
<linearGradient id="paint10_linear" x1="99.3589" y1="405.419" x2="109.351" y2="405.652" gradientUnits="userSpaceOnUse">
<stop offset="0.11632" stop-color="#2698EA"/>
<stop offset="0.527778" stop-color="#FFB176"/>
<stop offset="0.983091" stop-color="#ED5158"/>
</linearGradient>
<linearGradient id="paint11_linear" x1="104.089" y1="407.626" x2="104.089" y2="417.087" gradientUnits="userSpaceOnUse">
<stop stop-color="#5A82F6"/>
<stop offset="1" stop-color="white" stop-opacity="0"/>
</linearGradient>
<linearGradient id="paint12_linear" x1="221.033" y1="490.616" x2="231.025" y2="490.85" gradientUnits="userSpaceOnUse">
<stop offset="0.11632" stop-color="#2698EA"/>
<stop offset="0.527778" stop-color="#FFB176"/>
<stop offset="0.983091" stop-color="#ED5158"/>
</linearGradient>
<linearGradient id="paint13_linear" x1="225.764" y1="492.824" x2="225.764" y2="502.285" gradientUnits="userSpaceOnUse">
<stop stop-color="#5A82F6"/>
<stop offset="1" stop-color="white" stop-opacity="0"/>
</linearGradient>
<linearGradient id="paint14_linear" x1="306.23" y1="368.942" x2="316.223" y2="369.175" gradientUnits="userSpaceOnUse">
<stop offset="0.11632" stop-color="#2698EA"/>
<stop offset="0.527778" stop-color="#FFB176"/>
<stop offset="0.983091" stop-color="#ED5158"/>
</linearGradient>
<linearGradient id="paint15_linear" x1="310.961" y1="371.149" x2="310.961" y2="380.61" gradientUnits="userSpaceOnUse">
<stop stop-color="#5A82F6"/>
<stop offset="1" stop-color="white" stop-opacity="0"/>
</linearGradient>
<linearGradient id="paint16_linear" x1="368.805" y1="-3.06978" x2="525.681" y2="0.595009" gradientUnits="userSpaceOnUse">
<stop offset="0.11632" stop-color="#2698EA"/>
<stop offset="0.527778" stop-color="#FFB176"/>
<stop offset="0.983091" stop-color="#ED5158"/>
</linearGradient>
<linearGradient id="paint17_linear" x1="443.073" y1="31.5889" x2="443.073" y2="180.126" gradientUnits="userSpaceOnUse">
<stop stop-color="#5A82F6"/>
<stop offset="1" stop-color="white" stop-opacity="0"/>
</linearGradient>
<linearGradient id="paint18_linear" x1="367.644" y1="22.7924" x2="377.636" y2="23.0259" gradientUnits="userSpaceOnUse">
<stop offset="0.11632" stop-color="#2698EA"/>
<stop offset="0.527778" stop-color="#FFB176"/>
<stop offset="0.983091" stop-color="#ED5158"/>
</linearGradient>
<linearGradient id="paint19_linear" x1="372.374" y1="25" x2="372.374" y2="34.4609" gradientUnits="userSpaceOnUse">
<stop stop-color="#5A82F6"/>
<stop offset="1" stop-color="white" stop-opacity="0"/>
</linearGradient>
<linearGradient id="paint20_linear" x1="282.446" y1="144.467" x2="292.438" y2="144.7" gradientUnits="userSpaceOnUse">
<stop offset="0.11632" stop-color="#2698EA"/>
<stop offset="0.527778" stop-color="#FFB176"/>
<stop offset="0.983091" stop-color="#ED5158"/>
</linearGradient>
<linearGradient id="paint21_linear" x1="287.177" y1="146.674" x2="287.177" y2="156.135" gradientUnits="userSpaceOnUse">
<stop stop-color="#5A82F6"/>
<stop offset="1" stop-color="white" stop-opacity="0"/>
</linearGradient>
<linearGradient id="paint22_linear" x1="404.121" y1="229.664" x2="414.113" y2="229.897" gradientUnits="userSpaceOnUse">
<stop offset="0.11632" stop-color="#2698EA"/>
<stop offset="0.527778" stop-color="#FFB176"/>
<stop offset="0.983091" stop-color="#ED5158"/>
</linearGradient>
<linearGradient id="paint23_linear" x1="408.851" y1="231.872" x2="408.851" y2="241.333" gradientUnits="userSpaceOnUse">
<stop stop-color="#5A82F6"/>
<stop offset="1" stop-color="white" stop-opacity="0"/>
</linearGradient>
<linearGradient id="paint24_linear" x1="489.318" y1="107.99" x2="499.31" y2="108.223" gradientUnits="userSpaceOnUse">
<stop offset="0.11632" stop-color="#2698EA"/>
<stop offset="0.527778" stop-color="#FFB176"/>
<stop offset="0.983091" stop-color="#ED5158"/>
</linearGradient>
<linearGradient id="paint25_linear" x1="494.048" y1="110.197" x2="494.048" y2="119.658" gradientUnits="userSpaceOnUse">
<stop stop-color="#5A82F6"/>
<stop offset="1" stop-color="white" stop-opacity="0"/>
</linearGradient>
<linearGradient id="paint26_linear" x1="482.006" y1="253.608" x2="482.006" y2="402.145" gradientUnits="userSpaceOnUse">
<stop stop-color="#00D764"/>
<stop offset="1" stop-color="#2698EA"/>
</linearGradient>
<linearGradient id="paint27_linear" x1="411.306" y1="247.02" x2="411.306" y2="256.48" gradientUnits="userSpaceOnUse">
<stop stop-color="#00D764"/>
<stop offset="1" stop-color="#2698EA"/>
</linearGradient>
<linearGradient id="paint28_linear" x1="326.109" y1="368.694" x2="326.109" y2="378.155" gradientUnits="userSpaceOnUse">
<stop stop-color="#00D764"/>
<stop offset="1" stop-color="#2698EA"/>
</linearGradient>
<linearGradient id="paint29_linear" x1="447.783" y1="453.891" x2="447.783" y2="463.352" gradientUnits="userSpaceOnUse">
<stop stop-color="#00D764"/>
<stop offset="1" stop-color="#2698EA"/>
</linearGradient>
<linearGradient id="paint30_linear" x1="532.981" y1="332.217" x2="532.981" y2="341.678" gradientUnits="userSpaceOnUse">
<stop stop-color="#00D764"/>
<stop offset="1" stop-color="#2698EA"/>
</linearGradient>
<linearGradient id="paint31_linear" x1="444" y1="432" x2="444" y2="483" gradientUnits="userSpaceOnUse">
<stop stop-color="#FBC67A"/>
<stop offset="0.0001" stop-color="#5A82F6"/>
<stop offset="1" stop-color="#ED5158"/>
</linearGradient>
<linearGradient id="paint32_linear" x1="154.362" y1="367.889" x2="212.78" y2="369.25" gradientUnits="userSpaceOnUse">
<stop offset="0.11632" stop-color="#2698EA"/>
<stop offset="0.527778" stop-color="#FFB176"/>
<stop offset="0.983091" stop-color="#ED5158"/>
</linearGradient>
<linearGradient id="paint33_linear" x1="182.018" y1="380.829" x2="182.018" y2="436.285" gradientUnits="userSpaceOnUse">
<stop stop-color="#5A82F6"/>
<stop offset="1" stop-color="white" stop-opacity="0"/>
</linearGradient>
<linearGradient id="paint34_linear" x1="377.176" y1="163.212" x2="508.439" y2="166.28" gradientUnits="userSpaceOnUse">
<stop offset="0.11632" stop-color="#2698EA"/>
<stop offset="0.527778" stop-color="#FFB176"/>
<stop offset="0.983091" stop-color="#ED5158"/>
</linearGradient>
<linearGradient id="paint35_linear" x1="439.319" y1="192.191" x2="439.319" y2="316.39" gradientUnits="userSpaceOnUse">
<stop stop-color="#5A82F6"/>
<stop offset="1" stop-color="white" stop-opacity="0"/>
</linearGradient>
<linearGradient id="paint36_linear" x1="151.232" y1="280.264" x2="151.232" y2="285.852" gradientUnits="userSpaceOnUse">
<stop stop-color="#00D764"/>
<stop offset="1" stop-color="#2698EA"/>
</linearGradient>
<linearGradient id="paint37_linear" x1="186.703" y1="278.711" x2="186.703" y2="287.404" gradientUnits="userSpaceOnUse">
<stop stop-color="#00D764"/>
<stop offset="1" stop-color="#2698EA"/>
</linearGradient>
<linearGradient id="paint38_linear" x1="141.984" y1="142.875" x2="141.984" y2="189.447" gradientUnits="userSpaceOnUse">
<stop stop-color="#00D764"/>
<stop offset="1" stop-color="#2698EA"/>
</linearGradient>
<linearGradient id="paint39_linear" x1="142.484" y1="163.25" x2="142.484" y2="177.804" gradientUnits="userSpaceOnUse">
<stop stop-color="#00D764"/>
<stop offset="1" stop-color="#2698EA"/>
</linearGradient>
<linearGradient id="paint40_linear" x1="139.237" y1="172.332" x2="139.237" y2="177.804" gradientUnits="userSpaceOnUse">
<stop stop-color="#00D764"/>
<stop offset="1" stop-color="#2698EA"/>
</linearGradient>
<linearGradient id="paint41_linear" x1="144.731" y1="172.332" x2="144.731" y2="177.804" gradientUnits="userSpaceOnUse">
<stop stop-color="#00D764"/>
<stop offset="1" stop-color="#2698EA"/>
</linearGradient>
</defs>
</svg>
