<svg width="121" height="106" viewBox="0 0 121 106" fill="none" xmlns="http://www.w3.org/2000/svg">
<path d="M115.092 50.727C115.378 49.8477 116.622 49.8477 116.908 50.727V50.727C117.036 51.1199 117.403 51.386 117.816 51.386V51.386C118.74 51.386 119.125 52.5685 118.378 53.1111V53.1111C118.043 53.3539 117.903 53.7847 118.031 54.1778V54.1778C118.317 55.0564 117.309 55.7861 116.561 55.2435V55.2435C116.227 55.0008 115.773 55.0008 115.439 55.2435V55.2435C114.691 55.7861 113.683 55.0564 113.969 54.1778V54.1778C114.097 53.7847 113.957 53.3539 113.622 53.1111V53.1111C112.875 52.5685 113.26 51.386 114.184 51.386V51.386C114.597 51.386 114.964 51.1199 115.092 50.727V50.727Z" fill="#FBC67A"/>
<rect x="-0.70759" width="74.9494" height="74.9494" rx="22.4824" transform="matrix(0.70759 -0.706623 0.70759 0.706623 -0.206906 52.429)" stroke="#00D764" stroke-dasharray="3 3"/>
<rect width="59.959" height="59.959" rx="17.862" transform="matrix(0.707591 -0.706623 0.707591 0.706623 10 52.929)" fill="url(#paint0_linear)"/>
<path d="M88.2735 87.1181C88.5023 86.4147 89.4977 86.4147 89.7265 87.1181V87.1181C89.8288 87.4324 90.1222 87.6453 90.4527 87.6453V87.6453C91.1919 87.6453 91.5004 88.5913 90.9021 89.0254V89.0254C90.6344 89.2196 90.5224 89.5642 90.6247 89.8787V89.8787C90.8534 90.5816 90.0474 91.1654 89.4491 90.7313V90.7313C89.1815 90.5371 88.8185 90.5371 88.5509 90.7313V90.7313C87.9526 91.1654 87.1466 90.5816 87.3753 89.8787V89.8787C87.4776 89.5642 87.3656 89.2196 87.0979 89.0254V89.0254C86.4996 88.5913 86.8081 87.6453 87.5473 87.6453V87.6453C87.8778 87.6453 88.1712 87.4324 88.2735 87.1181V87.1181Z" fill="#FBC67A"/>
<path d="M8.09185 87.6763C8.37793 86.7971 9.62207 86.7971 9.90815 87.6763V87.6763C10.036 88.0692 10.4027 88.3353 10.8159 88.3353V88.3353C11.7398 88.3353 12.1254 89.5178 11.3776 90.0604V90.0604C11.043 90.3032 10.903 90.734 11.0309 91.1272V91.1272C11.3168 92.0057 10.3092 92.7354 9.56142 92.1929V92.1929C9.2269 91.9501 8.7731 91.9501 8.43858 92.1929V92.1929C7.69078 92.7354 6.68321 92.0057 6.96907 91.1272V91.1272C7.09698 90.734 6.95697 90.3032 6.62236 90.0604V90.0604C5.87455 89.5178 6.26017 88.3353 7.18407 88.3353V88.3353C7.59729 88.3353 7.964 88.0692 8.09185 87.6763V87.6763Z" fill="#FBC67A"/>
<path d="M10.0919 14.7762C10.3779 13.8969 11.6221 13.8969 11.9081 14.7762V14.7762C12.036 15.1691 12.4027 15.4352 12.8159 15.4352V15.4352C13.7398 15.4352 14.1254 16.6177 13.3776 17.1603V17.1603C13.043 17.4031 12.903 17.8339 13.0309 18.227V18.227C13.3168 19.1056 12.3092 19.8353 11.5614 19.2927V19.2927C11.2269 19.05 10.7731 19.05 10.4386 19.2927V19.2927C9.69078 19.8353 8.68321 19.1056 8.96907 18.227V18.227C9.09698 17.8339 8.95697 17.4031 8.62236 17.1603V17.1603C7.87455 16.6177 8.26017 15.4352 9.18407 15.4352V15.4352C9.59729 15.4352 9.964 15.1691 10.0919 14.7762V14.7762Z" fill="#FBC67A"/>
<path d="M89.0919 3.79117C89.3779 2.91192 90.6221 2.91192 90.9081 3.79117V3.79117C91.036 4.18411 91.4027 4.45019 91.8159 4.45019V4.45019C92.7398 4.45019 93.1254 5.63271 92.3776 6.17529V6.17529C92.043 6.41806 91.903 6.84889 92.0309 7.24202V7.24202C92.3168 8.12059 91.3092 8.85029 90.5614 8.30772V8.30772C90.2269 8.06501 89.7731 8.06501 89.4386 8.30772V8.30772C88.6908 8.85029 87.6832 8.12059 87.9691 7.24202V7.24202C88.097 6.84889 87.957 6.41807 87.6224 6.17529V6.17529C86.8746 5.63271 87.2602 4.45019 88.1841 4.45019V4.45019C88.5973 4.45019 88.964 4.18411 89.0919 3.79117V3.79117Z" fill="#FBC67A"/>
<path d="M59.0572 43.5837L49.0158 53.6115C48.5794 54.0484 48.3333 54.6414 48.3333 55.2589V57.5891H50.6666C51.2849 57.5891 51.8788 57.3432 52.3163 56.9063L62.3577 46.8786" stroke="#3E47DD" stroke-width="1.5" stroke-linecap="round" stroke-linejoin="round"/>
<path d="M64.3248 44.9143L62.2329 47.0033L58.9336 43.7085L61.0254 41.6195C61.4816 41.1639 62.2201 41.1639 62.6751 41.6195L64.3248 43.2669C64.7809 43.7224 64.7809 44.4599 64.3248 44.9143V44.9143Z" stroke="#3E47DD" stroke-width="1.5" stroke-linecap="round" stroke-linejoin="round"/>
<path d="M47.3729 44.5431C47.4868 44.657 47.4868 44.8416 47.3729 44.9555C47.259 45.0695 47.0743 45.0695 46.9604 44.9555C46.8465 44.8416 46.8465 44.657 46.9604 44.5431C47.0743 44.4292 47.259 44.4292 47.3729 44.5431Z" stroke="#3E47DD" stroke-width="1.5" stroke-linecap="round" stroke-linejoin="round"/>
<path d="M42.7062 44.5431C42.8201 44.657 42.8201 44.8416 42.7062 44.9555C42.5923 45.0695 42.4076 45.0695 42.2937 44.9555C42.1798 44.8416 42.1798 44.657 42.2937 44.5431C42.4076 44.4292 42.5923 44.4292 42.7062 44.5431Z" stroke="#3E47DD" stroke-width="1.5" stroke-linecap="round" stroke-linejoin="round"/>
<path d="M52.0394 44.5431C52.1533 44.657 52.1533 44.8416 52.0394 44.9555C51.9255 45.0695 51.7408 45.0695 51.6269 44.9555C51.513 44.8416 51.513 44.657 51.6269 44.5431C51.7408 44.4292 51.9255 44.4292 52.0394 44.5431Z" stroke="#3E47DD" stroke-width="1.5" stroke-linecap="round" stroke-linejoin="round"/>
<path d="M42.7062 49.2627C42.8201 49.3766 42.8201 49.5612 42.7062 49.6752C42.5923 49.7891 42.4076 49.7891 42.2937 49.6752C42.1798 49.5612 42.1798 49.3766 42.2937 49.2627C42.4076 49.1488 42.5923 49.1488 42.7062 49.2627Z" stroke="#3E47DD" stroke-width="1.5" stroke-linecap="round" stroke-linejoin="round"/>
<path d="M42.7062 53.923C42.8201 54.0369 42.8201 54.2215 42.7062 54.3354C42.5923 54.4493 42.4076 54.4493 42.2937 54.3354C42.1798 54.2215 42.1798 54.0369 42.2937 53.923C42.4076 53.809 42.5923 53.809 42.7062 53.923Z" stroke="#3E47DD" stroke-width="1.5" stroke-linecap="round" stroke-linejoin="round"/>
<path d="M42.7062 58.5832C42.8201 58.6971 42.8201 58.8818 42.7062 58.9957C42.5923 59.1096 42.4076 59.1096 42.2937 58.9957C42.1798 58.8818 42.1798 58.6971 42.2937 58.5832C42.4076 58.4693 42.5923 58.4693 42.7062 58.5832Z" stroke="#3E47DD" stroke-width="1.5" stroke-linecap="round" stroke-linejoin="round"/>
<path d="M42.7062 63.2435C42.8201 63.3574 42.8201 63.5421 42.7062 63.656C42.5923 63.7699 42.4076 63.7699 42.2937 63.656C42.1798 63.5421 42.1798 63.3574 42.2937 63.2435C42.4076 63.1296 42.5923 63.1296 42.7062 63.2435Z" stroke="#3E47DD" stroke-width="1.5" stroke-linecap="round" stroke-linejoin="round"/>
<path d="M47.3729 63.2435C47.4868 63.3574 47.4868 63.5421 47.3729 63.656C47.259 63.7699 47.0743 63.7699 46.9604 63.656C46.8465 63.5421 46.8465 63.3574 46.9604 63.2435C47.0743 63.1296 47.259 63.1296 47.3729 63.2435Z" stroke="#3E47DD" stroke-width="1.5" stroke-linecap="round" stroke-linejoin="round"/>
<path d="M52.0394 63.2435C52.1533 63.3574 52.1533 63.5421 52.0394 63.656C51.9255 63.7699 51.7408 63.7699 51.6269 63.656C51.513 63.5421 51.513 63.3574 51.6269 63.2435C51.7408 63.1296 51.9255 63.1296 52.0394 63.2435Z" stroke="#3E47DD" stroke-width="1.5" stroke-linecap="round" stroke-linejoin="round"/>
<path d="M56.7062 63.2086C56.8201 63.3225 56.8201 63.5072 56.7062 63.6211C56.5923 63.735 56.4076 63.735 56.2937 63.6211C56.1798 63.5072 56.1798 63.3225 56.2937 63.2086C56.4076 63.0947 56.5923 63.0947 56.7062 63.2086Z" stroke="#3E47DD" stroke-width="1.5" stroke-linecap="round" stroke-linejoin="round"/>
<path d="M61.3729 63.2086C61.4868 63.3225 61.4868 63.5072 61.3729 63.6211C61.259 63.735 61.0743 63.735 60.9604 63.6211C60.8465 63.5072 60.8465 63.3225 60.9604 63.2086C61.0743 63.0947 61.259 63.0947 61.3729 63.2086Z" stroke="#3E47DD" stroke-width="1.5" stroke-linecap="round" stroke-linejoin="round"/>
<path d="M61.3729 53.888C61.4868 54.0019 61.4868 54.1866 61.3729 54.3005C61.259 54.4144 61.0743 54.4144 60.9604 54.3005C60.8465 54.1866 60.8465 54.0019 60.9604 53.888C61.0743 53.7741 61.259 53.7741 61.3729 53.888Z" stroke="#3E47DD" stroke-width="1.5" stroke-linecap="round" stroke-linejoin="round"/>
<path d="M61.3729 58.5483C61.4868 58.6622 61.4868 58.8469 61.3729 58.9608C61.259 59.0747 61.0743 59.0747 60.9604 58.9608C60.8465 58.8469 60.8465 58.6622 60.9604 58.5483C61.0743 58.4344 61.259 58.4344 61.3729 58.5483Z" stroke="#3E47DD" stroke-width="1.5" stroke-linecap="round" stroke-linejoin="round"/>
<defs>
<linearGradient id="paint0_linear" x1="29.9795" y1="0" x2="29.9795" y2="59.959" gradientUnits="userSpaceOnUse">
<stop stop-color="#00D764"/>
<stop offset="1" stop-color="#2698EA"/>
</linearGradient>
</defs>
</svg>
