<svg width="121" height="106" viewBox="0 0 121 106" fill="none" xmlns="http://www.w3.org/2000/svg">
<path d="M115.092 50.7192C115.378 49.84 116.622 49.84 116.908 50.7192V50.7192C117.036 51.1121 117.403 51.3781 117.816 51.3781V51.3781C118.74 51.3781 119.125 52.5605 118.378 53.103V53.103C118.043 53.3457 117.903 53.7765 118.031 54.1696V54.1696C118.317 55.048 117.309 55.7775 116.561 55.2351V55.2351C116.227 54.9924 115.773 54.9924 115.439 55.2351V55.2351C114.691 55.7775 113.683 55.048 113.969 54.1696V54.1696C114.097 53.7765 113.957 53.3457 113.622 53.103V53.103C112.875 52.5605 113.26 51.3781 114.184 51.3781V51.3781C114.597 51.3781 114.964 51.1121 115.092 50.7192V50.7192Z" fill="#FBC67A"/>
<rect x="-0.707645" width="74.9438" height="74.9438" rx="22.4824" transform="matrix(0.707645 -0.706569 0.707645 0.706569 -0.206884 52.4209)" stroke="#00D764" stroke-dasharray="3 3"/>
<rect width="59.9544" height="59.9544" rx="17.862" transform="matrix(0.707645 -0.706569 0.707645 0.706569 10 52.9209)" fill="url(#paint0_linear)"/>
<path d="M88.2735 87.1048C88.5024 86.4014 89.4976 86.4014 89.7265 87.1048V87.1048C89.8288 87.4191 90.1222 87.6319 90.4527 87.6319V87.6319C91.1917 87.6319 91.5003 88.5778 90.9021 89.0118V89.0118C90.6344 89.206 90.5224 89.5506 90.6248 89.8651V89.8651C90.8534 90.5678 90.0473 91.1514 89.4491 90.7175V90.7175C89.1815 90.5233 88.8185 90.5233 88.5509 90.7175V90.7175C87.9527 91.1514 87.1466 90.5678 87.3752 89.8651V89.8651C87.4776 89.5506 87.3656 89.206 87.0979 89.0118V89.0118C86.4997 88.5778 86.8083 87.6319 87.5473 87.6319V87.6319C87.8778 87.6319 88.1712 87.4191 88.2735 87.1048V87.1048Z" fill="#FBC67A"/>
<path d="M8.09186 87.6629C8.37796 86.7837 9.62204 86.7837 9.90814 87.6629V87.6629C10.036 88.0558 10.4027 88.3219 10.8159 88.3219V88.3219C11.7397 88.3219 12.1254 89.5042 11.3776 90.0467V90.0467C11.043 90.2894 10.903 90.7202 11.031 91.1133V91.1133C11.3168 91.9918 10.3092 92.7212 9.56143 92.1788V92.1788C9.22693 91.9361 8.77307 91.9361 8.43857 92.1788V92.1788C7.69082 92.7212 6.68319 91.9918 6.96905 91.1133V91.1133C7.09697 90.7202 6.95697 90.2894 6.62236 90.0467V90.0467C5.87462 89.5042 6.26035 88.3219 7.18412 88.3219V88.3219C7.59728 88.3219 7.96401 88.0558 8.09186 87.6629V87.6629Z" fill="#FBC67A"/>
<path d="M10.0919 14.774C10.378 13.8948 11.622 13.8948 11.9081 14.774V14.774C12.036 15.1669 12.4027 15.4329 12.8159 15.4329V15.4329C13.7397 15.4329 14.1254 16.6153 13.3776 17.1578V17.1578C13.043 17.4005 12.903 17.8313 13.031 18.2244V18.2244C13.3168 19.1028 12.3092 19.8323 11.5614 19.2899V19.2899C11.2269 19.0472 10.7731 19.0472 10.4386 19.2899V19.2899C9.69082 19.8323 8.68319 19.1028 8.96905 18.2244V18.2244C9.09697 17.8313 8.95697 17.4005 8.62236 17.1578V17.1578C7.87462 16.6153 8.26035 15.4329 9.18412 15.4329V15.4329C9.59728 15.4329 9.96401 15.1669 10.0919 14.774V14.774Z" fill="#FBC67A"/>
<path d="M89.0919 3.79073C89.378 2.91154 90.622 2.91154 90.9081 3.79073V3.79073C91.036 4.18361 91.4027 4.44966 91.8159 4.44966V4.44966C92.7397 4.44966 93.1254 5.63205 92.3776 6.17449V6.17449C92.043 6.41723 91.903 6.84803 92.031 7.24112V7.24112C92.3168 8.11956 91.3092 8.84905 90.5614 8.30661V8.30661C90.2269 8.06395 89.7731 8.06395 89.4386 8.30661V8.30661C88.6908 8.84905 87.6832 8.11956 87.969 7.24112V7.24112C88.097 6.84803 87.957 6.41723 87.6224 6.17449V6.17449C86.8746 5.63205 87.2603 4.44966 88.1841 4.44966V4.44966C88.5973 4.44966 88.964 4.18361 89.0919 3.79073V3.79073Z" fill="#FBC67A"/>
<path d="M62.0335 51.25C62.6122 51.25 63.0835 51.7213 63.0835 52.3V53.7C63.0835 54.2787 62.6122 54.75 62.0335 54.75H60.6335C60.0548 54.75 59.5835 54.2787 59.5835 53.7V52.3C59.5835 51.7213 60.0548 51.25 60.6335 51.25H62.0335ZM62.0335 49.5H60.6335C59.0877 49.5 57.8335 50.7542 57.8335 52.3V53.7C57.8335 55.247 59.0877 56.5 60.6335 56.5H62.0335C63.5793 56.5 64.8335 55.2458 64.8335 53.7V52.3C64.8335 50.7542 63.5793 49.5 62.0335 49.5Z" fill="#3E47DD"/>
<path d="M43.3667 51.25C43.9454 51.25 44.4167 51.7213 44.4167 52.3V53.7C44.4167 54.2787 43.9454 54.75 43.3667 54.75H41.9667C41.3881 54.75 40.9167 54.2787 40.9167 53.7V52.3C40.9167 51.7213 41.3881 51.25 41.9667 51.25H43.3667ZM43.3667 49.5H41.9667C40.4209 49.5 39.1667 50.7542 39.1667 52.3V53.7C39.1667 55.2458 40.4209 56.5 41.9667 56.5H43.3667C44.9126 56.5 46.1667 55.2458 46.1667 53.7V52.3C46.1667 50.7542 44.9126 49.5 43.3667 49.5Z" fill="#3E47DD"/>
<path d="M52.7 41.9166C53.2787 41.9166 53.75 42.388 53.75 42.9666V44.3666C53.75 44.9453 53.2787 45.4166 52.7 45.4166H51.3C50.7213 45.4166 50.25 44.9453 50.25 44.3666V42.9666C50.25 42.388 50.7213 41.9166 51.3 41.9166H52.7V41.9166ZM52.7 40.1666H51.3C49.7542 40.1666 48.5 41.4208 48.5 42.9666V44.3666C48.5 45.9125 49.7542 47.1666 51.3 47.1666H52.7C54.2458 47.1666 55.5 45.9125 55.5 44.3666V42.9666C55.5 41.4208 54.2458 40.1666 52.7 40.1666Z" fill="#3E47DD"/>
<path d="M52.7 60.5833C53.2787 60.5833 53.75 61.0546 53.75 61.6333V63.0333C53.75 63.6119 53.2787 64.0833 52.7 64.0833H51.3C50.7213 64.0833 50.25 63.6119 50.25 63.0333V61.6333C50.25 61.0546 50.7213 60.5833 51.3 60.5833H52.7ZM52.7 58.8333H51.3C49.7542 58.8333 48.5 60.0874 48.5 61.6333V63.0333C48.5 64.5803 49.7542 65.8333 51.3 65.8333H52.7C54.2458 65.8333 55.5 64.5791 55.5 63.0333V61.6333C55.5 60.0874 54.2458 58.8333 52.7 58.8333Z" fill="#3E47DD"/>
<path d="M44.5801 47.3463C45.3384 46.3523 46.2916 45.5158 47.3836 44.8928" stroke="#3E47DD" stroke-width="1.5" stroke-linecap="round" stroke-linejoin="round" stroke-dasharray="0.01 2.13"/>
<path d="M59.42 58.6537C58.6616 59.6477 57.7085 60.4842 56.6165 61.1072" stroke="#3E47DD" stroke-width="1.5" stroke-linecap="round" stroke-linejoin="round" stroke-dasharray="0.01 2.13"/>
<path d="M46.3463 60.42C45.3523 59.6616 44.5158 58.7085 43.8928 57.6165" stroke="#3E47DD" stroke-width="1.5" stroke-linecap="round" stroke-linejoin="round" stroke-dasharray="0.01 2.13"/>
<path d="M57.6536 45.58C58.6476 46.3383 59.4841 47.2915 60.1071 48.3835" stroke="#3E47DD" stroke-width="1.5" stroke-linecap="round" stroke-linejoin="round" stroke-dasharray="0.01 2.13"/>
<defs>
<linearGradient id="paint0_linear" x1="29.9772" y1="0" x2="29.9772" y2="59.9544" gradientUnits="userSpaceOnUse">
<stop stop-color="#00D764"/>
<stop offset="1" stop-color="#2698EA"/>
</linearGradient>
</defs>
</svg>
