<svg width="122" height="122" viewBox="0 0 122 122" fill="none" xmlns="http://www.w3.org/2000/svg">
<g clip-path="url(#clip0)">
<g clip-path="url(#clip1)">
<rect width="60.0308" height="60.0308" rx="17.862" transform="matrix(0.706742 -0.707472 0.706742 0.707472 18 61.3623)" fill="url(#paint0_linear)"/>
<rect x="-0.706742" width="81.0411" height="81.0411" transform="matrix(0.706742 -0.707471 0.706742 0.707471 3.79274 60.8623)" stroke="url(#paint1_linear)"/>
<rect x="-0.706742" width="6.00256" height="6.00256" transform="matrix(0.706742 -0.707471 0.706742 0.707471 56.7925 117.921)" fill="#F3F4F8" stroke="url(#paint2_linear)"/>
<rect x="-0.706744" width="6.00255" height="6.00255" transform="matrix(0.706744 -0.70747 0.706744 0.70747 112.792 60.8623)" fill="#F3F4F8" stroke="url(#paint3_linear)"/>
<rect x="-0.706742" width="6.00255" height="6.00255" transform="matrix(0.706742 -0.707471 0.706742 0.707471 -0.207258 60.8623)" fill="#F3F4F8" stroke="url(#paint4_linear)"/>
<rect x="-0.706744" width="6.00255" height="6.00255" transform="matrix(0.706744 -0.70747 0.706744 0.70747 56.7925 3.80371)" fill="#F3F4F8" stroke="url(#paint5_linear)"/>
</g>
<g clip-path="url(#clip2)">
<path d="M60.5046 54C54.7273 54 50 58.7322 50 64.5155V68.3145" stroke="#F3F4F8" stroke-width="1.5" stroke-linecap="round" stroke-linejoin="round"/>
<path d="M60.5046 54C66.282 54 71.0093 58.7322 71.0093 64.5155V68.3145" stroke="#F3F4F8" stroke-width="1.5" stroke-linecap="round" stroke-linejoin="round"/>
<path d="M67.1092 75.0215H68.4089C69.8451 75.0215 71.0094 73.856 71.0094 72.4183V67.2131H67.1092C66.3917 67.2131 65.8096 67.7959 65.8096 68.5141V73.7193C65.8096 74.4387 66.3906 75.0215 67.1092 75.0215Z" stroke="#F3F4F8" stroke-width="1.5" stroke-linecap="round" stroke-linejoin="round"/>
<path d="M53.9002 75.0215H52.6005C51.1643 75.0215 50 73.856 50 72.4183V67.2131H53.9002C54.6177 67.2131 55.1998 67.7959 55.1998 68.5141V73.7193C55.1998 74.4387 54.6188 75.0215 53.9002 75.0215Z" stroke="#F3F4F8" stroke-width="1.5" stroke-linecap="round" stroke-linejoin="round"/>
</g>
</g>
<defs>
<linearGradient id="paint0_linear" x1="9.23551" y1="5.54131" x2="60.0308" y2="60.0308" gradientUnits="userSpaceOnUse">
<stop stop-color="#2698EA"/>
<stop offset="1" stop-color="#5A82F6" stop-opacity="0.8"/>
</linearGradient>
<linearGradient id="paint1_linear" x1="40.0205" y1="0" x2="40.0205" y2="80.0411" gradientUnits="userSpaceOnUse">
<stop stop-color="#00D764"/>
<stop offset="1" stop-color="#2698EA"/>
</linearGradient>
<linearGradient id="paint2_linear" x1="2.50128" y1="0" x2="2.50128" y2="5.00256" gradientUnits="userSpaceOnUse">
<stop stop-color="#00D764"/>
<stop offset="1" stop-color="#2698EA"/>
</linearGradient>
<linearGradient id="paint3_linear" x1="2.50128" y1="0" x2="2.50128" y2="5.00255" gradientUnits="userSpaceOnUse">
<stop stop-color="#00D764"/>
<stop offset="1" stop-color="#2698EA"/>
</linearGradient>
<linearGradient id="paint4_linear" x1="2.50128" y1="0" x2="2.50128" y2="5.00255" gradientUnits="userSpaceOnUse">
<stop stop-color="#00D764"/>
<stop offset="1" stop-color="#2698EA"/>
</linearGradient>
<linearGradient id="paint5_linear" x1="2.50128" y1="0" x2="2.50128" y2="5.00255" gradientUnits="userSpaceOnUse">
<stop stop-color="#00D764"/>
<stop offset="1" stop-color="#2698EA"/>
</linearGradient>
<clipPath id="clip0">
<rect width="85.654" height="85.654" fill="white" transform="matrix(0.706742 -0.707471 0.706742 0.707471 0 61.3623)"/>
</clipPath>
<clipPath id="clip1">
<rect width="85.654" height="85.654" fill="white" transform="matrix(0.706742 -0.707471 0.706742 0.707471 0 61.3623)"/>
</clipPath>
<clipPath id="clip2">
<rect width="21.0093" height="21.0216" fill="white" transform="translate(50 54)"/>
</clipPath>
</defs>
</svg>
