<svg width="121" height="106" viewBox="0 0 121 106" fill="none" xmlns="http://www.w3.org/2000/svg">
<path d="M115.092 50.7192C115.378 49.84 116.622 49.84 116.908 50.7192V50.7192C117.036 51.1121 117.403 51.3781 117.816 51.3781V51.3781C118.74 51.3781 119.125 52.5605 118.378 53.103V53.103C118.043 53.3457 117.903 53.7765 118.031 54.1696V54.1696C118.317 55.048 117.309 55.7775 116.561 55.2351V55.2351C116.227 54.9924 115.773 54.9924 115.439 55.2351V55.2351C114.691 55.7775 113.683 55.048 113.969 54.1696V54.1696C114.097 53.7765 113.957 53.3457 113.622 53.103V53.103C112.875 52.5605 113.26 51.3781 114.184 51.3781V51.3781C114.597 51.3781 114.964 51.1121 115.092 50.7192V50.7192Z" fill="#FBC67A"/>
<rect x="-0.707645" width="74.9438" height="74.9438" rx="22.4824" transform="matrix(0.707645 -0.706569 0.707645 0.706569 -0.206884 52.4209)" stroke="#00D764" stroke-dasharray="3 3"/>
<rect width="59.9544" height="59.9544" rx="17.862" transform="matrix(0.707645 -0.706569 0.707645 0.706569 10 52.9209)" fill="url(#paint0_linear)"/>
<path d="M88.2735 87.1048C88.5024 86.4014 89.4976 86.4014 89.7265 87.1048V87.1048C89.8288 87.4191 90.1222 87.6319 90.4527 87.6319V87.6319C91.1917 87.6319 91.5003 88.5778 90.9021 89.0118V89.0118C90.6344 89.206 90.5224 89.5506 90.6248 89.8651V89.8651C90.8534 90.5678 90.0473 91.1514 89.4491 90.7175V90.7175C89.1815 90.5233 88.8185 90.5233 88.5509 90.7175V90.7175C87.9527 91.1514 87.1466 90.5678 87.3752 89.8651V89.8651C87.4776 89.5506 87.3656 89.206 87.0979 89.0118V89.0118C86.4997 88.5778 86.8083 87.6319 87.5473 87.6319V87.6319C87.8778 87.6319 88.1712 87.4191 88.2735 87.1048V87.1048Z" fill="#FBC67A"/>
<path d="M8.09186 87.6629C8.37796 86.7837 9.62204 86.7837 9.90814 87.6629V87.6629C10.036 88.0558 10.4027 88.3219 10.8159 88.3219V88.3219C11.7397 88.3219 12.1254 89.5042 11.3776 90.0467V90.0467C11.043 90.2894 10.903 90.7202 11.031 91.1133V91.1133C11.3168 91.9918 10.3092 92.7212 9.56143 92.1788V92.1788C9.22693 91.9361 8.77307 91.9361 8.43857 92.1788V92.1788C7.69082 92.7212 6.68319 91.9918 6.96905 91.1133V91.1133C7.09697 90.7202 6.95697 90.2894 6.62236 90.0467V90.0467C5.87462 89.5042 6.26035 88.3219 7.18412 88.3219V88.3219C7.59728 88.3219 7.96401 88.0558 8.09186 87.6629V87.6629Z" fill="#FBC67A"/>
<path d="M10.0919 14.774C10.378 13.8948 11.622 13.8948 11.9081 14.774V14.774C12.036 15.1669 12.4027 15.4329 12.8159 15.4329V15.4329C13.7397 15.4329 14.1254 16.6153 13.3776 17.1578V17.1578C13.043 17.4005 12.903 17.8313 13.031 18.2244V18.2244C13.3168 19.1028 12.3092 19.8323 11.5614 19.2899V19.2899C11.2269 19.0472 10.7731 19.0472 10.4386 19.2899V19.2899C9.69082 19.8323 8.68319 19.1028 8.96905 18.2244V18.2244C9.09697 17.8313 8.95697 17.4005 8.62236 17.1578V17.1578C7.87462 16.6153 8.26035 15.4329 9.18412 15.4329V15.4329C9.59728 15.4329 9.96401 15.1669 10.0919 14.774V14.774Z" fill="#FBC67A"/>
<path d="M89.0919 3.79073C89.378 2.91154 90.622 2.91154 90.9081 3.79073V3.79073C91.036 4.18361 91.4027 4.44966 91.8159 4.44966V4.44966C92.7397 4.44966 93.1254 5.63205 92.3776 6.17449V6.17449C92.043 6.41723 91.903 6.84803 92.031 7.24112V7.24112C92.3168 8.11956 91.3092 8.84905 90.5614 8.30661V8.30661C90.2269 8.06395 89.7731 8.06395 89.4386 8.30661V8.30661C88.6908 8.84905 87.6832 8.11956 87.969 7.24112V7.24112C88.097 6.84803 87.957 6.41723 87.6224 6.17449V6.17449C86.8746 5.63205 87.2603 4.44966 88.1841 4.44966V4.44966C88.5973 4.44966 88.964 4.18361 89.0919 3.79073V3.79073Z" fill="#FBC67A"/>
<path d="M49.4677 59.0658L45.102 54.7068C44.1372 53.7435 44.1372 52.1825 45.102 51.2191L51.675 44.6561L59.5337 52.5028L52.9607 59.0658C51.9959 60.028 50.4314 60.028 49.4677 59.0658V59.0658Z" stroke="#3E47DD" stroke-width="1.5" stroke-linecap="round" stroke-linejoin="round"/>
<path d="M63.0301 55.986C63.0301 55.986 60.5603 58.6617 60.5603 60.3019C60.5603 61.6578 61.6721 62.768 63.0301 62.768C64.3881 62.768 65.5 61.6578 65.5 60.3007C65.5 58.6617 63.0301 55.986 63.0301 55.986V55.986Z" stroke="#3E47DD" stroke-width="1.5" stroke-linecap="round" stroke-linejoin="round"/>
<path d="M52.7367 45.7069L50.4033 43.3655" stroke="#3E47DD" stroke-width="1.5" stroke-linecap="round" stroke-linejoin="round"/>
<path d="M58.5 52.4983H45.3167" stroke="#3E47DD" stroke-width="1.5" stroke-linecap="round" stroke-linejoin="round"/>
<path d="M44.99 64.916H55" stroke="#3E47DD" stroke-width="1.5" stroke-linecap="round" stroke-linejoin="round"/>
<defs>
<linearGradient id="paint0_linear" x1="29.9772" y1="0" x2="29.9772" y2="59.9544" gradientUnits="userSpaceOnUse">
<stop stop-color="#00D764"/>
<stop offset="1" stop-color="#2698EA"/>
</linearGradient>
</defs>
</svg>
