<svg width="390" height="659" viewBox="0 0 390 659" fill="none" xmlns="http://www.w3.org/2000/svg">
<path fill-rule="evenodd" clip-rule="evenodd" d="M139.131 235.942C107.303 267.572 55.6993 267.572 23.8711 235.942C-7.95705 204.312 -7.95704 153.03 23.8711 121.4L122.125 23.7585C153.953 -7.8714 205.556 -7.8714 237.385 23.7585C269.213 55.3884 269.213 106.671 237.385 138.301L139.131 235.942ZM266.575 635.278C234.747 666.907 183.143 666.907 151.315 635.278C119.487 603.648 119.487 552.365 151.315 520.735L249.569 423.094C281.397 391.464 333 391.464 364.829 423.094C396.657 454.724 396.657 506.006 364.829 537.636L266.575 635.278ZM24.111 498.05C55.9391 529.68 107.543 529.68 139.371 498.05L366.129 272.705C397.957 241.075 397.957 189.793 366.129 158.163C334.301 126.533 282.697 126.533 250.869 158.163L24.111 383.508C-7.7172 415.138 -7.71722 466.42 24.111 498.05Z" fill="url(#paint0_linear)"/>
<path fill-rule="evenodd" clip-rule="evenodd" d="M139.131 235.942C107.303 267.572 55.6993 267.572 23.8711 235.942C-7.95705 204.312 -7.95704 153.03 23.8711 121.4L122.125 23.7585C153.953 -7.8714 205.556 -7.8714 237.385 23.7585C269.213 55.3884 269.213 106.671 237.385 138.301L139.131 235.942ZM266.575 635.278C234.747 666.907 183.143 666.907 151.315 635.278C119.487 603.648 119.487 552.365 151.315 520.735L249.569 423.094C281.397 391.464 333 391.464 364.829 423.094C396.657 454.724 396.657 506.006 364.829 537.636L266.575 635.278ZM24.111 498.05C55.9391 529.68 107.543 529.68 139.371 498.05L366.129 272.705C397.957 241.075 397.957 189.793 366.129 158.163C334.301 126.533 282.697 126.533 250.869 158.163L24.111 383.508C-7.7172 415.138 -7.71722 466.42 24.111 498.05Z" fill="url(#paint1_linear)"/>
<defs>
<linearGradient id="paint0_linear" x1="-91.0002" y1="659" x2="-63.5571" y2="-36.2564" gradientUnits="userSpaceOnUse">
<stop offset="0.11632" stop-color="#2698EA"/>
<stop offset="0.527778" stop-color="#FFB176"/>
<stop offset="0.983091" stop-color="#ED5158"/>
</linearGradient>
<linearGradient id="paint1_linear" x1="0" y1="329.518" x2="390" y2="329.518" gradientUnits="userSpaceOnUse">
<stop stop-color="#5A82F6"/>
<stop offset="1" stop-color="white" stop-opacity="0"/>
</linearGradient>
</defs>
</svg>
